<svg width="280" height="30" viewBox="0 0 280 30" fill="none" xmlns="http://www.w3.org/2000/svg" aria-hidden="true">
<path d="M19.6275 25C30.467 25 39.2549 20.5234 39.2549 14.9956C39.2637 9.47657 30.4758 5 19.6275 5C8.78789 5 0 9.47657 0 14.9956C0 20.5234 8.78789 25 19.6275 25ZM23.3258 20.0942C23 20.8476 22.4364 22.4595 21.142 23.1078C20.7546 23.3005 20.2703 23.3968 19.83 23.4056C19.7331 23.4056 19.6627 23.4056 19.6363 23.4056C16.0084 23.4056 12.6447 22.9063 9.81813 22.0477C9.79172 22.039 9.73008 22.0127 9.71247 22.0039C9.4483 21.9163 9.31622 21.7937 9.31622 21.6535C9.31622 21.5221 9.38666 21.4258 9.47472 21.3382C9.50994 21.2943 9.57158 21.2505 9.65083 21.1805C10.3024 20.6373 12.2661 19.2269 15.9644 17.8165C17.2588 17.3259 18.879 16.7127 20.5873 16.3535C21.5823 16.1432 25.2718 15.5826 23.3258 20.0942ZM33.2408 10.011C33.3112 9.8883 33.4081 9.79194 33.5754 9.77442C33.6634 9.76566 33.7955 9.79194 33.9804 9.90583C36.2875 11.3163 37.6523 13.0771 37.6523 14.9869C37.6523 18.4385 33.1967 21.3995 26.8216 22.696C26.4077 22.7749 26.1435 22.7749 26.0467 22.6697C25.985 22.6084 25.9674 22.4945 26.0467 22.3631C26.0907 22.293 26.1347 22.2317 26.214 22.1266C29.6833 18.053 32.325 12.0521 33.0823 10.3176C33.1439 10.2124 33.1967 10.0898 33.2408 10.011ZM15.9908 9.8883C16.3166 9.13491 16.8801 7.523 18.1746 6.88349C18.5708 6.69076 19.0463 6.59439 19.4866 6.58563C19.5834 6.58563 19.6539 6.58563 19.6803 6.58563C23.3082 6.58563 26.6719 7.08498 29.4984 7.9435C29.516 7.95226 29.5865 7.97854 29.6041 7.97854C29.8683 8.06614 30.0003 8.18003 30.0003 8.32895C30.0003 8.46036 29.9299 8.55672 29.8418 8.64433C29.7978 8.67937 29.745 8.73193 29.6657 8.80202C29.0141 9.34516 27.0505 10.7556 23.3522 12.166C22.0578 12.6566 20.4288 13.2698 18.7381 13.629C17.7343 13.8392 14.0448 14.3999 15.9908 9.8883ZM12.4334 7.28646C12.8472 7.20762 13.1114 7.20762 13.2082 7.31275C13.2611 7.37407 13.2787 7.48795 13.2082 7.61936C13.1642 7.68944 13.1202 7.75953 13.0409 7.85589C9.57158 11.9295 6.92993 17.9304 6.17266 19.6649C6.11982 19.7876 6.05818 19.9014 6.01416 19.9803C5.94371 20.1029 5.85566 20.2081 5.68835 20.2168C5.59149 20.2256 5.46821 20.1993 5.27449 20.0854C2.96745 18.675 1.6026 16.9141 1.6026 15.0044C1.6026 11.5528 6.05818 8.583 12.4334 7.28646Z" fill="black"/>
<g clip-path="url(#clip0_274_22351)">
<mask id="mask0_274_22351" style="mask-type:alpha" maskUnits="userSpaceOnUse" x="49" y="6" width="82" height="18">
<rect x="49.2549" y="6.14282" width="81.2959" height="17.7143"/>
</mask>
<g mask="url(#mask0_274_22351)">
<rect x="44.5881" y="3.33276" width="90.6667" height="23.3333" fill="black"/>
</g>
</g>
<path d="M168.572 19.4709C168.572 19.5666 168.62 19.6144 168.668 19.6144C168.716 19.6144 168.764 19.6144 168.764 19.5666L183.826 9.76383C184.113 9.57255 184.352 9.47692 184.687 9.47692H187.987C188.513 9.47692 188.847 9.81165 188.847 10.3376V16.6497C188.847 17.4148 188.656 17.8451 187.987 18.2755L183.97 20.6664C183.922 20.7142 183.874 20.7142 183.826 20.7142C183.779 20.7142 183.731 20.6664 183.731 20.5229V13.1589C183.731 13.0633 183.683 13.0155 183.635 13.0155C183.587 13.0155 183.539 13.0155 183.539 13.0633L172.541 20.236C172.254 20.4273 171.967 20.4751 171.68 20.4751H164.412C163.886 20.4751 163.551 20.1404 163.551 19.6144V10.5289C163.551 10.4811 163.504 10.3855 163.456 10.3855C163.408 10.3855 163.36 10.3855 163.36 10.4333L156.092 14.8326C155.996 14.8804 155.996 14.9282 155.996 14.9282C155.996 14.976 155.996 14.976 156.044 15.0238L161.208 20.1882C161.256 20.236 161.304 20.3317 161.304 20.3795C161.304 20.4273 161.208 20.4751 161.16 20.4751H156.474C156.092 20.4751 155.805 20.4273 155.614 20.236L152.458 17.08C152.41 17.0322 152.41 17.0322 152.362 17.0322C152.314 17.0322 152.314 17.0322 152.266 17.08L147.006 20.236C146.672 20.4273 146.48 20.4751 146.146 20.4751H141.412C140.886 20.4751 140.551 20.1404 140.551 19.6144V13.398C140.551 12.6329 140.742 12.2026 141.412 11.7722L145.428 9.33346C145.476 9.28564 145.524 9.28564 145.524 9.28564C145.572 9.28564 145.62 9.33346 145.62 9.47692V17.7495C145.62 17.8451 145.667 17.8929 145.715 17.8929C145.763 17.8929 145.811 17.8929 145.859 17.8451L159.487 9.62037C159.822 9.4291 160.013 9.38128 160.395 9.38128H167.759C168.285 9.38128 168.62 9.71601 168.62 10.242V19.4709H168.572Z" fill="black"/>
<defs>
<clipPath id="clip0_274_22351">
<rect width="81.2959" height="30" fill="white" transform="translate(49.2549)"/>
</clipPath>
</defs>
</svg>
