<?xml version="1.0" encoding="utf-8"?>
<!-- Generator: Adobe Illustrator 28.0.0, SVG Export Plug-In . SVG Version: 6.00 Build 0)  -->
<svg version="1.1" id="Layer_1" xmlns="http://www.w3.org/2000/svg" xmlns:xlink="http://www.w3.org/1999/xlink" x="0px" y="0px"
	 viewBox="0 0 180 180" style="enable-background:new 0 0 180 180;" xml:space="preserve">
<style type="text/css">
	.st0{fill:#A38971;}
	.st1{fill:#F4F4ED;}
	.st2{fill:#FFFFFF;}
</style>
<g>
	<circle class="st0" cx="90" cy="90" r="84"/>
	<g>
		<path class="st1" d="M12.9,91.4l0-1.6l11-0.1l0,1.6L12.9,91.4z"/>
		<path class="st1" d="M16,87l0.1-1.5l0.8,0.1l0,0c-0.6-0.6-0.8-1.2-0.8-2c0.1-0.6,0.3-1.2,0.8-1.7c0.5-0.5,1.2-0.7,2.1-0.6l5.2,0.5
			l-0.1,1.5l-4.6-0.4c-0.5,0-1,0.1-1.3,0.3c-0.3,0.3-0.5,0.6-0.5,1s0.1,0.8,0.3,1.1c0.3,0.3,0.7,0.5,1.2,0.5l4.6,0.4l-0.1,1.5L16,87
			z"/>
		<path class="st1" d="M18.2,78.4l-0.1,0.8l-1.2-0.2l0.1-0.8L16,78c-0.7-0.1-1.2-0.4-1.5-0.9c-0.3-0.4-0.3-0.9-0.2-1.5l0.2-1
			l1.5,0.3l-0.2,0.9c-0.1,0.4,0.1,0.7,0.5,0.8l1,0.2l0.3-1.5l1.2,0.2l-0.3,1.5L25,78l-0.3,1.5L18.2,78.4z"/>
		<path class="st1" d="M21.5,75.1c-0.8-0.2-1.4-0.4-1.8-0.7c-0.4-0.2-0.7-0.5-0.9-0.9c-0.2-0.3-0.3-0.6-0.4-1
			c-0.1-0.4-0.1-0.9,0.1-1.5c0.2-0.6,0.4-1,0.7-1.3c0.3-0.3,0.6-0.5,0.9-0.6c0.4-0.2,0.8-0.3,1.2-0.3c0.5,0,1.1,0.1,1.9,0.3
			c0.8,0.2,1.4,0.4,1.8,0.7c0.4,0.2,0.7,0.5,0.9,0.9c0.1,0.1,0.2,0.3,0.2,0.4c0.1,0.2,0.2,0.3,0.2,0.6c0.1,0.4,0.1,0.9,0,1.5
			c-0.2,0.6-0.4,1-0.7,1.3c-0.3,0.3-0.6,0.5-0.9,0.7c-0.4,0.2-0.8,0.3-1.2,0.3C22.9,75.4,22.3,75.3,21.5,75.1z M22.7,70.5
			c-0.5-0.1-0.9-0.2-1.2-0.2c-0.2,0-0.5,0-0.7,0.1c-0.2,0.1-0.4,0.2-0.5,0.4c-0.2,0.2-0.3,0.4-0.3,0.7c-0.1,0.2-0.1,0.5,0,0.7
			c0,0.2,0.1,0.4,0.3,0.6c0.1,0.2,0.3,0.3,0.6,0.4c0.2,0.1,0.6,0.3,1.1,0.4c0.5,0.1,0.9,0.2,1.2,0.2c0.3,0,0.5,0,0.7-0.1
			c0.2-0.1,0.4-0.2,0.5-0.4c0.2-0.2,0.3-0.4,0.3-0.6c0.1-0.3,0.1-0.5,0-0.7c-0.1-0.2-0.1-0.4-0.3-0.6c-0.1-0.2-0.3-0.4-0.6-0.5
			C23.6,70.8,23.2,70.7,22.7,70.5z"/>
		<path class="st1" d="M20.1,65.8l0.5-1.4l0.8,0.3l0,0C21,64,21,63.2,21.3,62.5c0.2-0.6,0.6-1,1.1-1.3l0.9,1.5
			c-0.4,0.2-0.6,0.5-0.7,0.8c-0.1,0.4-0.1,0.7,0,1.1c0.1,0.4,0.5,0.7,1,0.9l4.4,1.7l-0.5,1.4L20.1,65.8z"/>
		<path class="st1" d="M22.4,59.5l0.7-1.3l0.7,0.4l0,0c-0.3-0.7-0.2-1.5,0.2-2.2c0.3-0.5,0.6-0.8,0.9-1c0.3-0.2,0.7-0.3,1.1-0.4
			c-0.3-0.9-0.2-1.8,0.3-2.6c0.3-0.6,0.8-1,1.5-1.2c0.7-0.2,1.4-0.2,2.2,0.2l4.6,2.5l-0.7,1.3l-4.1-2.2c-0.5-0.3-0.9-0.3-1.3-0.2
			c-0.4,0.1-0.7,0.4-0.9,0.8c-0.2,0.4-0.3,0.8-0.2,1.2c0.1,0.4,0.4,0.7,0.9,1l4.1,2.2l-0.7,1.3L27.4,57c-0.5-0.3-0.9-0.3-1.3-0.2
			c-0.4,0.1-0.7,0.4-0.9,0.8c-0.2,0.4-0.3,0.8-0.2,1.2c0.1,0.4,0.4,0.7,0.9,1L30,62l-0.7,1.3L22.4,59.5z"/>
		<path class="st1" d="M37.5,48.6L37.5,48.6c0.1,0.3,0.1,0.6,0.1,0.9c-0.1,0.3-0.3,0.7-0.6,1.1c-0.5,0.7-1.1,1-1.7,1.1
			c-0.6,0.1-1.2,0-1.8-0.5c-0.5-0.4-0.8-0.9-0.9-1.5c-0.1-0.6,0.1-1.2,0.6-1.9l1.3-1.7l-0.7-0.5c-0.5-0.4-1.1-0.2-1.7,0.6
			c-0.2,0.3-0.4,0.6-0.4,0.8c-0.1,0.2,0,0.5,0.1,0.7l-1.5,0.4c-0.3-0.9-0.1-1.8,0.6-2.7c0.6-0.8,1.2-1.3,1.8-1.5
			c0.7-0.2,1.4,0,2.1,0.5l4.2,3.2l-0.9,1.2L37.5,48.6z M35.4,47.1l-1.1,1.5c-0.5,0.7-0.5,1.3,0,1.6c0.2,0.2,0.5,0.2,0.7,0.1
			c0.3,0,0.6-0.3,0.9-0.7c0.4-0.5,0.6-0.9,0.6-1.2c0-0.3-0.2-0.6-0.7-1L35.4,47.1z"/>
		<path class="st1" d="M32.8,39.5l1-1.1l1.8,1.6l0.7-0.8l0.9,0.8l-0.7,0.8l3.4,3.1c0.3,0.3,0.5,0.3,0.8,0l0.4-0.4l1.1,1L41.6,45
			c-0.4,0.4-0.8,0.6-1.3,0.6c-0.5,0-0.9-0.1-1.4-0.6l-3.5-3.2L35,42.4l-0.9-0.8l0.5-0.6L32.8,39.5z"/>
		<path class="st1" d="M35.5,35.5l1.1-1.1l1.1,1.1l-1.1,1.1L35.5,35.5z M37.7,37.7l1.1-1.1l5.5,5.6l-1.1,1.1L37.7,37.7z"/>
		<path class="st1" d="M42.8,38.1c-0.5-0.6-0.9-1.2-1.1-1.6c-0.2-0.4-0.2-0.8-0.2-1.2c0-0.3,0.1-0.7,0.2-1.1
			c0.2-0.4,0.5-0.8,0.9-1.1c0.5-0.4,0.9-0.6,1.3-0.7c0.4-0.1,0.8-0.1,1.1,0c0.4,0,0.8,0.2,1.2,0.4c0.4,0.3,0.8,0.7,1.3,1.3
			c0.5,0.6,0.9,1.2,1.1,1.6c0.2,0.4,0.3,0.8,0.2,1.3c0,0.2,0,0.3-0.1,0.5c0,0.2-0.1,0.4-0.2,0.6c-0.1,0.4-0.4,0.8-0.9,1.2
			c-0.5,0.4-0.9,0.6-1.3,0.6c-0.4,0.1-0.8,0.1-1.1,0c-0.4-0.1-0.8-0.2-1.2-0.5C43.8,39.2,43.4,38.8,42.8,38.1z M46.5,35.1
			c-0.4-0.4-0.6-0.7-0.8-0.9c-0.2-0.2-0.4-0.3-0.6-0.3c-0.2-0.1-0.4-0.1-0.6,0c-0.2,0.1-0.4,0.2-0.7,0.3c-0.2,0.2-0.3,0.4-0.4,0.6
			c-0.1,0.2-0.1,0.4-0.1,0.6c0,0.2,0.1,0.5,0.2,0.7c0.1,0.2,0.4,0.6,0.7,1c0.3,0.4,0.6,0.7,0.8,0.9c0.2,0.2,0.4,0.3,0.7,0.3
			c0.2,0,0.4,0,0.6,0c0.2-0.1,0.5-0.2,0.7-0.3c0.2-0.2,0.4-0.4,0.5-0.6c0.1-0.2,0.1-0.4,0.1-0.6c0-0.2-0.1-0.5-0.2-0.7
			C47.1,35.9,46.8,35.6,46.5,35.1z"/>
		<path class="st1" d="M47.1,29.7l1.3-0.8l0.5,0.7l0,0c0.1-0.8,0.5-1.4,1.1-1.8c0.5-0.3,1.1-0.5,1.8-0.4c0.7,0.1,1.3,0.5,1.8,1.3
			l2.8,4.3l-1.3,0.8l-2.5-3.9c-0.3-0.5-0.6-0.7-1-0.8c-0.4-0.1-0.8,0-1.1,0.2c-0.4,0.2-0.6,0.6-0.7,1c-0.1,0.4,0,0.8,0.3,1.3
			l2.5,3.9l-1.3,0.8L47.1,29.7z"/>
		<path class="st1" d="M60.5,27.8c1.1,0.3,2.1,0.3,3.2-0.2c1.3-0.6,1.7-1.3,1.3-2.2c-0.3-0.8-0.9-1-1.8-0.8
			c-0.4,0.1-0.9,0.2-1.4,0.4c-0.9,0.2-1.7,0.2-2.3-0.2c-0.7-0.3-1.2-0.9-1.5-1.6c-0.4-0.9-0.4-1.7,0-2.5c0.3-0.8,1-1.4,2-1.8
			c1.2-0.5,2.4-0.6,3.6-0.3l-0.3,1.6c-0.9-0.2-1.9-0.1-2.8,0.2c-0.5,0.2-0.8,0.5-1,0.8c-0.2,0.4-0.2,0.8,0,1.3
			c0.1,0.3,0.3,0.5,0.7,0.7c0.3,0.1,0.7,0.2,1.3,0.1c0.3-0.1,0.7-0.2,1.2-0.3c1-0.3,1.8-0.2,2.5,0.2c0.7,0.4,1.1,0.9,1.4,1.6
			c0.8,2,0,3.4-2.2,4.4c-1.4,0.6-2.9,0.7-4.3,0.2L60.5,27.8z"/>
		<path class="st1" d="M69.3,23.7c0.2,0.6,0.5,1,0.9,1.2c0.4,0.2,0.9,0.3,1.4,0.1c0.6-0.2,1.1-0.6,1.4-1.2l1.3,0.6
			c-0.5,1-1.3,1.7-2.3,2c-0.4,0.1-0.8,0.2-1.2,0.1c-0.2,0-0.4,0-0.6-0.1c-0.2,0-0.4-0.1-0.6-0.2c-0.4-0.2-0.7-0.5-1.1-1
			c-0.3-0.4-0.6-1-0.9-1.8c-0.2-0.7-0.3-1.4-0.3-1.9c0-0.6,0.2-1,0.4-1.4c0.2-0.4,0.5-0.7,0.8-0.9c0.3-0.2,0.6-0.4,1-0.5
			c0.8-0.2,1.6-0.1,2.3,0.2c0.7,0.4,1.3,1.1,1.6,2.1l0.4,1.2L69.3,23.7z M72.1,21.6c-0.2-0.6-0.5-1-0.8-1.2
			c-0.4-0.2-0.8-0.2-1.2-0.1c-0.4,0.1-0.8,0.4-1,0.7c-0.2,0.4-0.2,0.9-0.1,1.5L72.1,21.6z"/>
		<path class="st1" d="M81.6,23.1c-0.3,0.4-0.6,0.8-1,1.1c-0.4,0.3-0.9,0.5-1.5,0.7c-0.9,0.2-1.7,0-2.5-0.5
			c-0.8-0.5-1.3-1.4-1.6-2.8c-0.2-1.4,0-2.5,0.5-3.2c0.6-0.7,1.3-1.2,2.2-1.3c0.6-0.1,1.1-0.1,1.6,0.1c0.5,0.2,0.9,0.4,1.3,0.8
			L79.8,19c-0.5-0.5-1-0.6-1.7-0.5c-1.3,0.2-1.8,1.1-1.5,2.7c0.3,1.6,1.1,2.3,2.4,2.1c0.6-0.1,1.1-0.5,1.4-1.1L81.6,23.1z"/>
		<path class="st1" d="M82.3,16.4l1.5-0.1l0.3,4.6c0,0.5,0.2,0.9,0.5,1.2c0.3,0.3,0.7,0.4,1.1,0.4c0.4,0,0.8-0.2,1-0.5
			c0.3-0.3,0.4-0.7,0.3-1.3l-0.3-4.6l1.5-0.1l0.5,7.8l-1.5,0.1l-0.1-0.8l0,0c-0.5,0.6-1.1,1-1.9,1c-0.6,0-1.2-0.2-1.7-0.6
			c-0.6-0.4-0.9-1.1-1-1.9L82.3,16.4z"/>
		<path class="st1" d="M91.1,16l1.5,0.1l0,0.8l0,0c0.5-0.6,1.2-0.9,2-0.8c0.6,0,1.1,0.3,1.6,0.7L95,18.1c-0.3-0.3-0.6-0.4-1-0.4
			c-0.4,0-0.7,0.1-1,0.3c-0.3,0.2-0.5,0.7-0.5,1.2l-0.2,4.7l-1.5-0.1L91.1,16z"/>
		<path class="st1" d="M97.5,16.4l1.5,0.2l-0.9,7.8l-1.5-0.2L97.5,16.4z M97.8,13.3l1.5,0.2L99.2,15l-1.5-0.2L97.8,13.3z"/>
		<path class="st1" d="M101.9,14.6l1.5,0.3l-0.4,2.3l1.1,0.2l-0.2,1.2l-1.1-0.2l-0.8,4.5c-0.1,0.4,0.1,0.6,0.4,0.7l0.6,0.1l-0.2,1.5
			l-0.8-0.1c-0.5-0.1-0.9-0.3-1.2-0.7c-0.3-0.4-0.4-0.9-0.3-1.5l0.8-4.6l-0.8-0.1l0.2-1.2l0.8,0.1L101.9,14.6z"/>
		<path class="st1" d="M105,17.5l1.6,0.4l0.4,5.7l0,0l3.1-4.9l1.6,0.4l-5.5,8.3c-0.3,0.5-0.7,0.8-1.1,1c-0.4,0.1-0.8,0.1-1.3,0
			l-0.5-0.1l0.4-1.4L104,27c0.2,0,0.4,0,0.6,0c0.2-0.1,0.3-0.2,0.5-0.4l0.7-1.2L105,17.5z"/>
		<path class="st1" d="M118.6,18.2l1.4,0.6l-0.3,7.8l5.7-5.2l1.4,0.6l-4.7,9.9l-1.5-0.7l2.9-6.2l0,0l-4.2,3.8l-1.2-0.6l0.2-5.7l0,0
			l-2.9,6.2l-1.5-0.7L118.6,18.2z"/>
		<path class="st1" d="M127.6,34.7L127.6,34.7c-0.3,0.1-0.6,0.2-0.9,0.1c-0.3-0.1-0.7-0.2-1.1-0.5c-0.7-0.5-1.1-1-1.3-1.6
			c-0.2-0.6-0.1-1.2,0.3-1.8c0.4-0.5,0.8-0.9,1.4-1c0.6-0.1,1.2,0,1.9,0.4l1.8,1.2l0.5-0.7c0.4-0.6,0.1-1.1-0.7-1.7
			c-0.3-0.2-0.6-0.3-0.8-0.4c-0.2,0-0.5,0-0.7,0.1l-0.5-1.4c0.9-0.3,1.8-0.2,2.8,0.4c0.8,0.5,1.3,1.1,1.6,1.7
			c0.3,0.6,0.1,1.4-0.4,2.2l-2.9,4.5l-1.3-0.8L127.6,34.7z M129.1,32.5l-1.5-1c-0.8-0.5-1.3-0.4-1.6,0.1c-0.1,0.2-0.2,0.5-0.1,0.8
			c0.1,0.3,0.3,0.6,0.7,0.9c0.5,0.4,0.9,0.5,1.3,0.5c0.3,0,0.6-0.3,0.9-0.7L129.1,32.5z"/>
		<path class="st1" d="M135.1,31.2l1.2,1l-0.5,0.6l0,0c0.8-0.2,1.5,0,2.1,0.5c0.5,0.4,0.8,0.9,0.9,1.6c0.1,0.7-0.1,1.4-0.7,2.1
			l-3.3,4l-1.2-1l3-3.6c0.4-0.4,0.5-0.8,0.5-1.2c0-0.4-0.2-0.7-0.5-1c-0.3-0.3-0.7-0.4-1.1-0.4c-0.4,0-0.8,0.3-1.1,0.7l-3,3.6
			l-1.2-1L135.1,31.2z"/>
		<path class="st1" d="M139.3,44.8L139.3,44.8c-0.3,0.1-0.6,0-0.9-0.1c-0.3-0.1-0.6-0.4-1-0.7c-0.6-0.6-0.9-1.2-0.8-1.9
			c0-0.7,0.2-1.2,0.7-1.7c0.5-0.5,1-0.7,1.6-0.7c0.6,0,1.2,0.3,1.8,0.9l1.4,1.5l0.6-0.6c0.5-0.5,0.4-1.1-0.3-1.8
			c-0.3-0.3-0.5-0.5-0.7-0.6c-0.2-0.1-0.5-0.1-0.7-0.1l-0.1-1.5c1-0.1,1.8,0.2,2.6,1.1c0.7,0.7,1.1,1.4,1.2,2c0.1,0.7-0.2,1.4-0.9,2
			l-3.9,3.7l-1-1.1L139.3,44.8z M141.2,43l-1.3-1.3c-0.6-0.6-1.2-0.7-1.6-0.3c-0.2,0.2-0.3,0.4-0.3,0.7c0,0.3,0.2,0.6,0.5,1
			c0.4,0.5,0.8,0.7,1.1,0.8c0.3,0.1,0.6-0.1,1.1-0.5L141.2,43z"/>
		<path class="st1" d="M144.4,50.7c-0.8,0-1.4-0.4-1.9-1c-0.3-0.4-0.4-0.8-0.5-1.2c0-0.4,0-0.7,0-1c0.1-0.3,0.2-0.6,0.5-0.9
			c0.2-0.3,0.8-0.8,1.6-1.4c0.8-0.6,1.4-1,1.8-1.2c0.3-0.2,0.7-0.2,1-0.2c0.3,0,0.6,0.1,1,0.2c0.3,0.1,0.7,0.4,1,0.8
			c0.5,0.6,0.6,1.3,0.4,2.1l0.7-0.5l0.9,1.2l-6.1,4.6c-0.9,0.7-1.8,0.9-2.7,0.8c-0.8-0.2-1.5-0.6-2.1-1.3c-0.6-0.8-0.8-1.8-0.5-2.9
			l1.5,0.4c0,0.3,0,0.5,0,0.8c0,0.3,0.1,0.6,0.3,0.8c0.3,0.4,0.7,0.7,1.1,0.7c0.4,0.1,0.9-0.1,1.3-0.4L144.4,50.7z M145,46.5
			c-0.5,0.4-0.8,0.6-1,0.8c-0.2,0.2-0.3,0.4-0.3,0.5c-0.1,0.2-0.1,0.4,0,0.6c0,0.2,0.1,0.5,0.3,0.7c0.2,0.2,0.4,0.4,0.6,0.5
			c0.2,0.1,0.4,0.1,0.6,0.1c0.2,0,0.4,0,0.6-0.2c0.2-0.1,0.5-0.3,1-0.7c0.5-0.4,0.8-0.6,1-0.8c0.2-0.2,0.3-0.4,0.3-0.5
			c0.1-0.2,0.1-0.4,0.1-0.6c0-0.2-0.1-0.5-0.3-0.7c-0.2-0.2-0.4-0.4-0.6-0.5c-0.2-0.1-0.4-0.1-0.6-0.1c-0.2,0-0.4,0-0.6,0.2
			C145.8,45.9,145.5,46.1,145,46.5z"/>
		<path class="st1" d="M149.1,53.3c-0.5,0.3-0.9,0.7-1,1.2c-0.1,0.4,0,0.9,0.2,1.4c0.3,0.5,0.8,0.9,1.5,1l-0.3,1.4
			c-1.1-0.2-1.9-0.8-2.5-1.7c-0.2-0.3-0.3-0.7-0.4-1.1c0-0.2-0.1-0.4-0.1-0.6c0-0.2,0-0.4,0-0.6c0.1-0.4,0.3-0.9,0.7-1.3
			c0.3-0.4,0.8-0.9,1.5-1.3c0.7-0.4,1.3-0.6,1.8-0.7c0.5-0.1,1-0.1,1.4,0c0.4,0.1,0.8,0.3,1.1,0.5c0.3,0.2,0.5,0.5,0.7,0.8
			c0.4,0.7,0.5,1.5,0.4,2.3c-0.2,0.8-0.7,1.5-1.6,2l-1.1,0.7L149.1,53.3z M151.9,55.4c0.5-0.3,0.8-0.7,1-1.1c0.1-0.4,0-0.8-0.2-1.2
			s-0.6-0.6-1-0.7c-0.4-0.1-0.9,0-1.4,0.3L151.9,55.4z"/>
		<path class="st1" d="M156.7,57.4l0.6,1.4l-0.8,0.3l0,0c0.8,0.3,1.3,0.8,1.6,1.5c0.2,0.5,0.3,0.9,0.2,1.3c-0.1,0.4-0.2,0.7-0.4,1.1
			c0.9,0.3,1.5,0.9,1.9,1.9c0.2,0.6,0.2,1.2,0,1.9c-0.2,0.7-0.8,1.2-1.6,1.5l-4.8,1.9l-0.6-1.4l4.3-1.7c0.5-0.2,0.8-0.5,1-0.9
			c0.2-0.4,0.2-0.8,0-1.2s-0.4-0.7-0.8-0.9c-0.4-0.2-0.8-0.2-1.3,0l-4.3,1.7l-0.6-1.4l4.3-1.7c0.5-0.2,0.8-0.5,1-0.9
			c0.2-0.4,0.2-0.8,0-1.2c-0.2-0.4-0.4-0.7-0.8-0.9c-0.4-0.2-0.8-0.2-1.3,0l-4.3,1.7l-0.6-1.4L156.7,57.4z"/>
		<path class="st1" d="M157.4,72.6c-0.6,0.1-1,0.4-1.3,0.8c-0.2,0.4-0.3,0.8-0.2,1.4c0.1,0.6,0.5,1.1,1.1,1.4l-0.7,1.3
			c-1-0.6-1.6-1.3-1.8-2.4c-0.1-0.4-0.1-0.8-0.1-1.2c0-0.2,0.1-0.4,0.1-0.6c0-0.2,0.1-0.4,0.2-0.6c0.2-0.4,0.5-0.7,1-1
			c0.4-0.3,1-0.6,1.8-0.8c0.8-0.2,1.4-0.2,1.9-0.2c0.6,0.1,1,0.2,1.4,0.4c0.4,0.2,0.7,0.5,0.9,0.8c0.2,0.3,0.4,0.7,0.4,1
			c0.2,0.8,0.1,1.6-0.4,2.3c-0.4,0.7-1.1,1.2-2.1,1.5l-1.3,0.3L157.4,72.6z M159.4,75.4c0.6-0.2,1-0.4,1.2-0.8
			c0.2-0.4,0.3-0.8,0.2-1.2c-0.1-0.4-0.3-0.8-0.7-1c-0.4-0.2-0.9-0.3-1.5-0.1L159.4,75.4z"/>
		<path class="st1" d="M163.3,78.6l0.2,1.5l-0.8,0.1l0,0c0.7,0.4,1,1,1.1,1.8c0.1,0.6-0.1,1.2-0.5,1.8c-0.4,0.6-1,0.9-1.9,1
			l-5.2,0.6L156,84l4.6-0.5c0.5-0.1,0.9-0.2,1.2-0.6c0.3-0.3,0.4-0.7,0.3-1.1c0-0.4-0.2-0.8-0.6-1c-0.3-0.3-0.7-0.3-1.3-0.3
			l-4.6,0.5l-0.2-1.5L163.3,78.6z"/>
		<path class="st1" d="M166.4,87.3l0,1.5l-2.4,0l0,1.1l-1.2,0l0-1.1l-4.5,0.1c-0.4,0-0.6,0.2-0.6,0.6l0,0.6l-1.5,0l0-0.8
			c0-0.5,0.1-1,0.5-1.3c0.3-0.4,0.8-0.5,1.4-0.6l4.7-0.1l0-0.8l1.2,0l0,0.8L166.4,87.3z"/>
	</g>
	<g>
		<path class="st1" d="M52.7,149.5c1.5-2.9,4.8-3.9,7.8-2.4c2.6,1.4,3.6,3.9,2.9,6.1l-2.2-1.1c0.3-1-0.3-2.3-1.7-3
			c-1.7-0.9-3.7-0.3-4.7,1.5c-0.9,1.8-0.3,3.8,1.4,4.7c1.4,0.7,3,0.4,3.6-0.4L62,156c-1.3,1.8-4.2,2.6-6.9,1.2
			C52.2,155.7,51.2,152.4,52.7,149.5z"/>
		<path class="st1" d="M66.1,150.1l7.7,2.5l-0.7,2l-5.4-1.8L67,155l4.9,1.6l-0.7,2l-4.9-1.6l-0.7,2.2l5.5,1.8l-0.7,2l-7.8-2.6
			L66.1,150.1z"/>
		<path class="st1" d="M79.5,164.8L78,161l-1.9-0.3l-0.6,3.4l-2.4-0.4L75,153l4.3,0.7c2.7,0.5,4.1,2.2,3.7,4.4
			c-0.3,1.5-1.1,2.5-2.5,2.9l1.8,4.3L79.5,164.8z M76.5,158.6l1.8,0.3c1.3,0.2,2.1-0.2,2.3-1.2c0.2-1-0.5-1.7-1.8-1.9l-1.8-0.3
			L76.5,158.6z"/>
		<path class="st1" d="M93.4,156.9l-3.5-0.1l-0.2,8.7l-2.4-0.1l0.2-8.7l-3.5-0.1l0-2.1l9.5,0.2L93.4,156.9z"/>
		<path class="st1" d="M96.8,154.3l0.9,10.8l-2.4,0.2l-0.9-10.8L96.8,154.3z"/>
		<path class="st1" d="M98.5,154.2l7.8-1.5l0.4,2.1l-5.4,1l0.5,2.4l4.8-0.9l0.4,2.1l-4.8,0.9l0.8,4.1l-2.4,0.4L98.5,154.2z"/>
		<path class="st1" d="M109.6,151.6l3.1,10.4l-2.3,0.7l-3.1-10.4L109.6,151.6z"/>
		<path class="st1" d="M111.2,151.2l7.4-3.1l0.8,1.9l-5.2,2.2l0.9,2l4.8-2l0.8,1.9l-4.8,2l0.9,2.2l5.3-2.2l0.8,1.9l-7.6,3.1
			L111.2,151.2z"/>
		<path class="st1" d="M119.8,147.6l3.6-2.2c3.1-1.9,6.1-1.2,7.8,1.6s0.9,5.8-2.1,7.7l-3.6,2.2L119.8,147.6z M128,152.8
			c1.8-1.1,2.2-2.8,1.1-4.5c-1.1-1.8-2.8-2.1-4.6-1l-1.6,1l3.4,5.6L128,152.8z"/>
	</g>
	<circle class="st2" cx="90" cy="90" r="57.5"/>
	<g>
		<path class="st2" d="M149.6,133.7c-0.6,0.3-1.1,0.6-1.1,0.6l-0.5,2.5l-1.6-1.9c0,0-0.6,0.1-1.2,0.2c-0.6,0.1-1.2,0.1-1.2,0.1
			s0.3-0.5,0.6-1c0.3-0.5,0.6-1.1,0.6-1.1l-1.1-2.2c0,0,0.6,0.1,1.2,0.2c0.6,0.1,1.2,0.2,1.2,0.2l1.7-1.8l0.4,2.4l2.2,1.1
			C150.7,133.1,150.2,133.4,149.6,133.7z M155.5,124.4c-0.5,0.4-1,0.7-1,0.7l-0.1,2.5l-1.9-1.6c0,0-0.6,0.2-1.2,0.3
			c-0.6,0.2-1.2,0.3-1.2,0.3s0.2-0.6,0.5-1.1c0.2-0.6,0.4-1.1,0.4-1.1l-1.4-2c0,0,0.6,0,1.2,0.1c0.6,0,1.2,0,1.2,0l1.4-2l0.7,2.3
			l2.4,0.7C156.5,123.6,156,124,155.5,124.4z M159.1,116.4c0.1,0.6,0.1,1.3,0.1,1.3l-2.1-1.3l-2.2,1l0.6-2.4c0,0-0.4-0.4-0.8-0.9
			c-0.4-0.4-0.8-0.9-0.8-0.9l2.4-0.3c0,0,0.3-0.5,0.6-1.1c0.3-0.5,0.5-1.1,0.5-1.1s0.3,0.5,0.5,1.1c0.3,0.6,0.5,1.1,0.5,1.1l2.4,0.4
			l-1.8,1.8C159,115.1,159,115.7,159.1,116.4z M162.2,105.8c0.2,0.6,0.3,1.2,0.3,1.2l-2.3-1l-2.1,1.3l0.2-2.4c0,0-0.5-0.4-1-0.8
			c-0.5-0.4-1-0.7-1-0.7l2.4-0.6c0,0,0.2-0.6,0.4-1.2c0.2-0.6,0.4-1.2,0.4-1.2s0.4,0.5,0.7,1c0.3,0.5,0.7,1,0.7,1l2.5,0l-1.5,2
			C161.9,104.5,162.1,105.1,162.2,105.8z M141.6,140.3l2,1.4c0,0-0.6,0.2-1.2,0.4c-0.6,0.2-1.2,0.4-1.2,0.4l-0.9,2.4l-1.3-2.1
			c0,0-0.6,0-1.2,0c-0.6,0-1.2-0.1-1.2-0.1s0.4-0.5,0.8-0.9c0.4-0.5,0.8-1,0.8-1l-0.8-2.3c0,0,0.6,0.2,1.2,0.4
			c0.6,0.2,1.2,0.4,1.2,0.4l1.9-1.5L141.6,140.3z M45.2,140.8l-0.6,2.4c0,0,0.4,0.5,0.8,0.9c0.4,0.4,0.8,0.9,0.8,0.9
			s-0.6,0.1-1.2,0.1c-0.6,0.1-1.2,0.1-1.2,0.1l-1.2,2.1l-1-2.4c0,0-0.6-0.2-1.2-0.3c-0.6-0.2-1.2-0.4-1.2-0.4l2-1.5l-0.1-2.5l2,1.4
			c0,0,0.6-0.2,1.1-0.5C44.6,141.1,45.2,140.8,45.2,140.8z M17.3,106.1l2.5-0.1c0,0,0.3-0.5,0.6-1.1c0.3-0.5,0.7-1,0.7-1
			s0.2,0.6,0.4,1.1c0.2,0.6,0.4,1.1,0.4,1.1l2.4,0.5c0,0-0.5,0.4-0.9,0.8c-0.5,0.4-0.9,0.8-0.9,0.8l0.3,2.4l-2.1-1.2l-2.2,1.1
			c0,0,0.1-0.6,0.2-1.3c0.1-0.6,0.3-1.2,0.3-1.2L17.3,106.1z M22.3,121l0.1-2.5l-1.9-1.7l2.4-0.5c0,0,0.2-0.6,0.5-1.1
			c0.2-0.6,0.5-1.1,0.5-1.1l1.2,2.1l2.4,0.1c0,0-0.4,0.5-0.8,0.9c-0.4,0.5-0.8,0.9-0.8,0.9l0.7,2.4l-2.3-0.9L22.3,121z M29.5,129.1
			l-1.8,1.7l-0.3-2.5c0,0-0.5-0.3-1.1-0.7c-0.5-0.4-1.1-0.7-1.1-0.7l2.3-0.8l0.6-2.4l1.5,1.9c0,0,0.6-0.1,1.2-0.1
			c0.6-0.1,1.2-0.1,1.2-0.1l-1.3,2.1c0,0,0.3,0.6,0.5,1.1c0.1,0.3,0.3,0.6,0.3,0.8c0.1,0.2,0.2,0.3,0.2,0.3s-0.6-0.1-1.2-0.3
			C30.1,129.2,29.5,129.1,29.5,129.1z M31.5,136.1l2.2-1.2l0.3-2.5l1.8,1.7c0,0,0.6-0.1,1.2-0.3c0.6-0.2,1.2-0.3,1.2-0.3l-1,2.2
			c0,0,0.3,0.5,0.7,1c0.3,0.5,0.7,1,0.7,1s-0.6,0-1.2-0.1c-0.6-0.1-1.2-0.1-1.2-0.1l-1.5,1.9l-0.6-2.5c0,0-0.6-0.2-1.2-0.5
			C32.1,136.4,31.5,136.1,31.5,136.1z"/>
	</g>
	<g>
		<path d="M66.7,112.3c0,2-1,3.8-4.4,7.3l-2.8,2.9h7.6v3.7h-14v-2.5l6.4-6.6c2.4-2.4,2.9-3.7,2.9-4.8c0-1.4-0.8-2.4-2.7-2.4
			c-1.8,0-2.7,1.4-2.7,2.9h-4.3c0-3.8,2.9-6.7,7-6.7C64.2,106.2,66.7,108.7,66.7,112.3z"/>
		<path d="M82.3,109.3l-7.3,17h-4.6l6.7-15.8h-8.4v-3.8h13.4V109.3z"/>
		<path d="M98.7,116.4c0,6.8-3.2,10.3-7.5,10.3c-4.3,0-7.5-3.4-7.5-10.3c0-6.9,3.2-10.3,7.5-10.3C95.5,106.2,98.7,109.6,98.7,116.4z
			 M87.9,116.4c0,4.4,1.4,6.5,3.4,6.5c1.9,0,3.4-2,3.4-6.5c0-4.5-1.4-6.5-3.4-6.5C89.3,110,87.9,112,87.9,116.4z"/>
		<path d="M115.6,116.4c0,6.8-3.2,10.3-7.5,10.3c-4.3,0-7.5-3.4-7.5-10.3c0-6.9,3.2-10.3,7.5-10.3
			C112.4,106.2,115.6,109.6,115.6,116.4z M104.8,116.4c0,4.4,1.4,6.5,3.4,6.5c1.9,0,3.4-2,3.4-6.5c0-4.5-1.4-6.5-3.4-6.5
			C106.2,110,104.8,112,104.8,116.4z"/>
		<path d="M125.1,126.2h-4.3v-15.8h-3.5v-3.8h7.8V126.2z"/>
	</g>
	<g>
		<path d="M61.7,88.6h6.2V97H44.7v-8.4h6.2V67.5h-6.2v-8.4h23.2v8.4h-6.2V88.6z"/>
		<path d="M69.6,83.2h8.1c1.6,3.7,5.2,5.6,9.2,5.6c1.5,0,4.5-0.1,4.5-2.1c0-3-7.7-3-12.9-4.6c-5.4-1.7-9-5.2-9-10.5
			c0-8,5.5-12.4,13.7-12.4c3.5,0,4.9,0.4,7.8,1.7v-1.6h8.6v13.3h-8c-0.2-3.3-5.3-5.1-8-5.1c-2.6,0-4.2,0.8-4.2,2.1
			c0,2.5,7.2,2.5,12.2,4.1c5.2,1.6,9.9,5,9.9,11.4c0,8.7-6.9,12-15,12c-3,0-5.9-0.7-8.2-2.4c0,0.3,0,2.3,0,2.3h-8.7V83.2z"/>
		<path d="M139.9,78.1c0,9.9-6.8,19.1-18.8,19.1c-12.1,0-18.8-9.2-18.8-19.1c0-9.9,6.8-19.1,18.8-19.1
			C133.2,59,139.9,68.2,139.9,78.1z M114.6,78.1c0,5.8,0.9,10.8,6.5,10.8c5.6,0,6.5-5.6,6.5-10.8c0-5.2-0.9-10.8-6.5-10.8
			C115.5,67.3,114.6,72.2,114.6,78.1z"/>
	</g>
</g>
</svg>
