<?xml version="1.0" encoding="utf-8"?>
<!-- Generator: Adobe Illustrator 28.0.0, SVG Export Plug-In . SVG Version: 6.00 Build 0)  -->
<svg version="1.1" id="Layer_1" xmlns="http://www.w3.org/2000/svg" xmlns:xlink="http://www.w3.org/1999/xlink" x="0px" y="0px"
	 viewBox="0 0 180 180" style="enable-background:new 0 0 180 180;" xml:space="preserve">
<style type="text/css">
	.st0{fill:#596483;}
	.st1{fill:#F4F4ED;}
	.st2{fill:#FFFFFF;}
</style>
<g>
	<circle class="st0" cx="89.5" cy="89.5" r="84"/>
	<g>
		<path class="st1" d="M24.7,64.8c0.9,0.5,1.5,1.2,1.8,2c0.3,0.8,0.3,1.6,0,2.5c-0.3,0.8-0.7,1.4-1.2,1.8c-0.5,0.4-1.1,0.7-1.6,0.8
			c-0.2,0-0.4,0-0.5,0.1c-0.2,0-0.4,0-0.6,0c-0.4-0.1-1.3-0.3-2.5-0.7c-1.2-0.4-2-0.7-2.4-0.9c-0.4-0.2-0.7-0.4-0.9-0.7
			c-0.4-0.4-0.7-0.9-0.9-1.6c-0.2-0.7-0.2-1.4,0-2.2c0.3-1,0.9-1.7,1.7-2.1c0.8-0.4,1.6-0.6,2.6-0.5L19.7,65c-0.5,0-0.9,0.1-1.3,0.3
			c-0.4,0.3-0.7,0.6-0.8,1.1c-0.1,0.4-0.1,0.7-0.1,1c0.1,0.3,0.2,0.6,0.3,0.8c0.2,0.3,0.4,0.5,0.7,0.7c0.4,0.2,1,0.5,2.1,0.8
			c1,0.3,1.7,0.5,2.1,0.6c0.4,0,0.7,0,1-0.1c0.3-0.1,0.5-0.3,0.7-0.5c0.2-0.2,0.4-0.5,0.5-0.9c0.3-0.9,0-1.7-0.8-2.4L24.7,64.8z"/>
		<path class="st1" d="M18,60.6l0.6-1.4l8.3,3.5c0.3,0.1,0.6,0,0.7-0.3l0.2-0.5l1.4,0.6L28.9,63c-0.2,0.5-0.5,0.9-0.9,1.1
			c-0.4,0.2-0.9,0.2-1.6,0L18,60.6z"/>
		<path class="st1" d="M26,59.9c-0.7-0.4-1.3-0.7-1.6-1.1c-0.3-0.3-0.5-0.7-0.7-1.1c-0.1-0.3-0.2-0.7-0.2-1.1c0-0.4,0.1-0.9,0.4-1.4
			c0.3-0.5,0.6-0.9,0.9-1.1c0.4-0.2,0.7-0.4,1-0.4c0.4-0.1,0.8-0.1,1.3-0.1c0.4,0.1,1,0.3,1.8,0.7c0.7,0.4,1.3,0.7,1.6,1
			c0.3,0.3,0.6,0.7,0.7,1.1c0.1,0.1,0.1,0.3,0.1,0.5c0.1,0.2,0.1,0.4,0.1,0.6c0,0.4-0.1,0.9-0.4,1.4c-0.3,0.5-0.6,0.9-1,1.1
			c-0.3,0.2-0.7,0.4-1,0.5c-0.4,0.1-0.8,0.1-1.3,0C27.3,60.5,26.7,60.3,26,59.9z M28.2,55.7c-0.5-0.3-0.9-0.4-1.1-0.5
			c-0.2-0.1-0.5-0.1-0.7,0c-0.2,0-0.4,0.1-0.6,0.2c-0.2,0.1-0.4,0.3-0.5,0.6c-0.1,0.2-0.2,0.5-0.2,0.7c0,0.2,0,0.4,0.1,0.6
			c0.1,0.2,0.3,0.4,0.4,0.6c0.2,0.2,0.5,0.4,1,0.6c0.5,0.3,0.8,0.4,1.1,0.5c0.3,0.1,0.5,0.1,0.7,0.1c0.2,0,0.4-0.1,0.6-0.3
			c0.2-0.1,0.4-0.3,0.5-0.6c0.1-0.2,0.2-0.5,0.2-0.7c0-0.2,0-0.5-0.1-0.6c-0.1-0.2-0.3-0.4-0.5-0.6C29,56.2,28.6,55.9,28.2,55.7z"/>
		<path class="st1" d="M26.7,50.4l0.9-1.3l3.8,2.6c0.4,0.3,0.9,0.4,1.3,0.3c0.4-0.1,0.7-0.3,1-0.6c0.2-0.4,0.3-0.7,0.2-1.1
			c-0.1-0.4-0.3-0.7-0.8-1l-3.8-2.6l0.9-1.3l6.4,4.4l-0.9,1.3L35,50.6l0,0c0.2,0.8,0.1,1.5-0.3,2.1c-0.4,0.5-0.9,0.8-1.5,1
			c-0.7,0.2-1.4,0.1-2.1-0.4L26.7,50.4z"/>
		<path class="st1" d="M40.1,44.4c0.1,0.8-0.1,1.5-0.6,2.1c-0.3,0.3-0.6,0.6-1,0.7c-0.4,0.1-0.7,0.2-1.1,0.2c-0.3,0-0.7-0.1-1-0.3
			c-0.4-0.2-0.9-0.6-1.6-1.2c-0.7-0.6-1.2-1.1-1.4-1.4c-0.3-0.3-0.4-0.6-0.5-1c-0.2-0.8,0-1.5,0.6-2.2c0.3-0.3,0.6-0.5,0.9-0.6
			c0.3-0.1,0.7-0.2,1.1-0.2l-3-2.6l1-1.1l8.3,7.2l-1,1.1L40.1,44.4z M34.9,41.9c-0.2,0.3-0.4,0.5-0.4,0.7c0,0.2,0,0.5,0.1,0.7
			c0.1,0.2,0.3,0.4,0.5,0.6c0.2,0.2,0.4,0.4,0.7,0.6c0.2,0.2,0.5,0.4,0.7,0.5c0.2,0.2,0.5,0.3,0.7,0.4c0.2,0.1,0.5,0.1,0.7,0
			c0.2,0,0.5-0.2,0.7-0.5c0.2-0.3,0.4-0.5,0.4-0.8c0-0.3,0-0.5-0.1-0.7c-0.1-0.2-0.3-0.5-0.5-0.7c-0.2-0.2-0.4-0.4-0.6-0.6
			c-0.2-0.2-0.4-0.4-0.7-0.6c-0.2-0.2-0.5-0.3-0.7-0.4c-0.2-0.1-0.5-0.1-0.7-0.1C35.4,41.4,35.1,41.6,34.9,41.9z"/>
		<path class="st1" d="M43.9,37.9c1.1,0,2.1-0.3,3-1c1.1-0.9,1.3-1.7,0.7-2.5c-0.5-0.6-1.2-0.7-2-0.3c-0.4,0.2-0.8,0.5-1.2,0.7
			c-0.8,0.5-1.6,0.6-2.3,0.5c-0.7-0.1-1.3-0.5-1.8-1.1c-0.6-0.7-0.8-1.5-0.7-2.4c0.1-0.8,0.6-1.6,1.4-2.3c1-0.8,2.2-1.2,3.4-1.3
			l0.2,1.6c-1,0.1-1.8,0.4-2.6,1c-0.4,0.3-0.6,0.7-0.7,1.1c-0.1,0.4,0,0.8,0.3,1.3c0.2,0.2,0.5,0.4,0.8,0.4c0.3,0.1,0.8,0,1.2-0.3
			c0.3-0.1,0.6-0.3,1-0.6c0.9-0.5,1.7-0.7,2.4-0.5c0.7,0.2,1.3,0.5,1.8,1.2c1.3,1.7,1,3.3-0.9,4.8c-1.2,1-2.6,1.4-4.1,1.4L43.9,37.9
			z"/>
		<path class="st1" d="M51.3,31.5c0.3,0.5,0.7,0.8,1.2,0.9c0.5,0.1,0.9,0,1.4-0.3c0.5-0.3,0.9-0.8,1-1.5l1.4,0.2
			c-0.2,1.1-0.8,2-1.6,2.5c-0.3,0.2-0.7,0.4-1.1,0.5c-0.2,0-0.4,0.1-0.6,0.1c-0.2,0-0.4,0-0.6,0c-0.4-0.1-0.9-0.3-1.3-0.6
			c-0.5-0.3-0.9-0.8-1.3-1.5c-0.4-0.7-0.7-1.2-0.8-1.8c-0.1-0.5-0.1-1,0-1.4c0.1-0.4,0.3-0.8,0.5-1.1c0.2-0.3,0.5-0.6,0.8-0.8
			c0.7-0.4,1.5-0.6,2.3-0.4c0.8,0.2,1.5,0.7,2.1,1.6l0.7,1.1L51.3,31.5z M53.4,28.7c-0.3-0.5-0.7-0.8-1.1-0.9
			c-0.4-0.1-0.8,0-1.2,0.2c-0.4,0.2-0.6,0.6-0.7,1c-0.1,0.4,0,0.9,0.3,1.4L53.4,28.7z"/>
		<path class="st1" d="M62.9,27.5c-0.1,0.5-0.3,0.9-0.6,1.4c-0.3,0.4-0.7,0.8-1.2,1c-0.8,0.4-1.6,0.5-2.5,0.2
			c-0.9-0.3-1.7-1-2.3-2.3c-0.6-1.3-0.7-2.4-0.4-3.2c0.3-0.9,0.9-1.5,1.7-1.9c0.5-0.2,1.1-0.4,1.6-0.3c0.5,0,1,0.2,1.5,0.4l-0.6,1.4
			c-0.6-0.3-1.2-0.3-1.7-0.1c-1.2,0.5-1.4,1.6-0.7,3.1c0.7,1.5,1.7,1.9,2.8,1.3c0.6-0.3,0.9-0.8,1-1.4L62.9,27.5z"/>
		<path class="st1" d="M61.8,20.9l1.4-0.5l1.6,4.4c0.2,0.5,0.5,0.8,0.8,1c0.4,0.2,0.8,0.2,1.2,0.1c0.4-0.1,0.7-0.4,0.9-0.8
			c0.2-0.4,0.2-0.8,0-1.3L66,19.4l1.4-0.5l2.6,7.4l-1.4,0.5l-0.3-0.8l0,0c-0.3,0.7-0.8,1.3-1.5,1.5c-0.6,0.2-1.2,0.2-1.8-0.1
			c-0.7-0.2-1.2-0.8-1.5-1.6L61.8,20.9z"/>
		<path class="st1" d="M70.1,18.1l1.5-0.4l0.2,0.8l0,0c0.3-0.7,0.9-1.2,1.7-1.4c0.6-0.1,1.2-0.1,1.7,0.2L74.5,19
			c-0.4-0.2-0.7-0.2-1.1-0.1c-0.4,0.1-0.7,0.3-0.9,0.6c-0.2,0.3-0.3,0.8-0.2,1.3l1.1,4.6L72,25.7L70.1,18.1z"/>
		<path class="st1" d="M75.9,13.6l1.5-0.3l0.3,1.5l-1.5,0.3L75.9,13.6z M76.4,16.7l1.5-0.3l1.3,7.7l-1.5,0.3L76.4,16.7z"/>
		<path class="st1" d="M80.1,13.7l1.5-0.2l0.3,2.4l1.1-0.1l0.1,1.2L82,17.1l0.5,4.5c0,0.4,0.2,0.6,0.6,0.5l0.6-0.1l0.2,1.5l-0.8,0.1
			c-0.5,0.1-1-0.1-1.4-0.4C81.3,23,81.1,22.6,81,22l-0.5-4.7l-0.8,0.1l-0.1-1.2l0.8-0.1L80.1,13.7z"/>
		<path class="st1" d="M83.9,15.7l1.6,0l1.9,5.4l0,0l1.6-5.5l1.6,0l-3,9.5c-0.2,0.6-0.5,1-0.8,1.2c-0.4,0.2-0.8,0.3-1.3,0.4l-0.5,0
			l0-1.5l0.4,0c0.2,0,0.4-0.1,0.5-0.2c0.2-0.1,0.3-0.3,0.3-0.5l0.4-1.3L83.9,15.7z"/>
		<path class="st1" d="M97.1,12.6l1.5,0.2l1.9,7.5l4.1-6.6l1.5,0.2l-1.7,10.8l-1.6-0.3l1.1-6.8l0,0l-3,4.9l-1.3-0.2L98.1,17l0,0
			L97,23.7l-1.6-0.3L97.1,12.6z"/>
		<path class="st1" d="M110.4,26L110.4,26c-0.2,0.2-0.5,0.3-0.8,0.4c-0.3,0-0.7,0-1.2-0.2c-0.8-0.3-1.4-0.7-1.7-1.2
			c-0.3-0.6-0.4-1.2-0.2-1.8c0.2-0.6,0.6-1.1,1.1-1.4c0.5-0.3,1.2-0.3,2-0.1l2,0.6l0.2-0.8c0.2-0.7-0.2-1.1-1.2-1.4
			c-0.4-0.1-0.7-0.2-0.9-0.1c-0.2,0-0.5,0.1-0.7,0.3l-0.9-1.3c0.8-0.6,1.7-0.7,2.8-0.3c0.9,0.3,1.6,0.7,2,1.2
			c0.4,0.5,0.5,1.3,0.2,2.2l-1.6,5.1l-1.5-0.4L110.4,26z M111.1,23.5l-1.7-0.5c-0.9-0.2-1.4-0.1-1.5,0.5c-0.1,0.3,0,0.5,0.1,0.7
			c0.1,0.3,0.5,0.5,0.9,0.6c0.6,0.2,1.1,0.3,1.4,0.2c0.3-0.1,0.5-0.4,0.7-1L111.1,23.5z"/>
		<path class="st1" d="M116.6,20.6l1.4,0.6l-0.3,0.8l0,0c0.7-0.4,1.4-0.4,2.2-0.1c0.6,0.3,1,0.7,1.3,1.3c0.3,0.6,0.3,1.4-0.1,2.2
			l-2.1,4.7l-1.4-0.6l1.9-4.3c0.2-0.5,0.3-0.9,0.1-1.3c-0.1-0.4-0.4-0.7-0.8-0.8c-0.4-0.2-0.8-0.2-1.2,0c-0.4,0.1-0.7,0.5-0.9,1
			l-1.9,4.3l-1.4-0.6L116.6,20.6z"/>
		<path class="st1" d="M124.4,32.5L124.4,32.5c-0.3,0.1-0.6,0.2-0.9,0.2c-0.3,0-0.7-0.2-1.1-0.4c-0.7-0.4-1.2-1-1.3-1.6
			c-0.2-0.6-0.1-1.2,0.2-1.8c0.3-0.6,0.8-0.9,1.4-1.1c0.6-0.2,1.2-0.1,1.9,0.3l1.8,1.1l0.4-0.7c0.4-0.6,0.1-1.1-0.8-1.7
			c-0.3-0.2-0.6-0.3-0.8-0.4c-0.2,0-0.5,0-0.7,0.1l-0.6-1.4c0.9-0.4,1.8-0.3,2.8,0.3c0.8,0.5,1.4,1,1.7,1.6c0.3,0.6,0.2,1.4-0.3,2.2
			l-2.7,4.6l-1.3-0.8L124.4,32.5z M125.8,30.2l-1.6-0.9c-0.8-0.4-1.3-0.4-1.6,0.1c-0.1,0.2-0.2,0.5,0,0.8c0.1,0.3,0.3,0.6,0.8,0.8
			c0.5,0.3,1,0.5,1.3,0.5c0.3,0,0.6-0.3,0.9-0.8L125.8,30.2z"/>
		<path class="st1" d="M130.9,36.8c-0.8,0.2-1.5,0-2.1-0.5c-0.4-0.3-0.6-0.6-0.8-1c-0.2-0.4-0.2-0.7-0.2-1c0-0.3,0.1-0.7,0.2-1
			c0.1-0.3,0.5-0.9,1.1-1.8c0.6-0.8,1.1-1.4,1.4-1.6c0.3-0.2,0.6-0.4,0.9-0.5c0.3-0.1,0.6-0.1,1-0.1c0.4,0,0.8,0.2,1.2,0.5
			c0.6,0.5,0.9,1.1,1,1.9l0.5-0.7l1.2,0.9l-4.6,6.1c-0.7,0.9-1.5,1.4-2.3,1.5c-0.9,0.1-1.6-0.2-2.3-0.7c-0.8-0.6-1.2-1.5-1.3-2.6
			l1.5-0.1c0,0.3,0.1,0.5,0.2,0.8c0.1,0.3,0.3,0.5,0.5,0.7c0.4,0.3,0.8,0.4,1.3,0.4c0.4-0.1,0.8-0.3,1.1-0.7L130.9,36.8z
			 M130.3,32.5c-0.4,0.5-0.6,0.8-0.7,1c-0.1,0.2-0.2,0.4-0.2,0.6c0,0.2,0,0.4,0.1,0.6c0.1,0.2,0.2,0.4,0.5,0.6
			c0.2,0.2,0.5,0.3,0.7,0.3c0.2,0,0.4,0,0.6,0c0.2,0,0.4-0.2,0.6-0.3c0.2-0.2,0.4-0.5,0.8-1c0.4-0.5,0.6-0.8,0.7-1
			c0.1-0.2,0.2-0.4,0.1-0.6c0-0.2,0-0.4-0.1-0.6c-0.1-0.2-0.2-0.4-0.5-0.6c-0.2-0.2-0.5-0.3-0.7-0.3c-0.2,0-0.5,0-0.6,0.1
			c-0.2,0-0.4,0.1-0.5,0.3C131,31.7,130.7,32,130.3,32.5z"/>
		<path class="st1" d="M136.2,38c-0.4,0.5-0.6,0.9-0.6,1.4c0,0.5,0.2,0.9,0.6,1.2c0.4,0.4,1,0.6,1.7,0.6l0.1,1.5
			c-1.1,0.1-2.1-0.2-2.8-1c-0.3-0.3-0.5-0.6-0.7-0.9c-0.1-0.2-0.2-0.4-0.2-0.6c-0.1-0.2-0.1-0.4-0.1-0.6c0-0.4,0.1-0.9,0.3-1.4
			c0.2-0.5,0.6-1.1,1.1-1.6c0.5-0.6,1-1,1.5-1.2c0.5-0.2,1-0.4,1.4-0.4c0.4,0,0.8,0.1,1.2,0.2c0.4,0.2,0.7,0.4,0.9,0.6
			c0.6,0.6,0.9,1.3,1,2.1c0,0.8-0.3,1.6-1,2.4l-0.9,0.9L136.2,38z M139.4,39.2c0.4-0.5,0.6-0.9,0.6-1.3c0-0.4-0.2-0.8-0.5-1.1
			c-0.3-0.3-0.7-0.5-1.1-0.5c-0.4,0-0.9,0.3-1.3,0.7L139.4,39.2z"/>
		<path class="st1" d="M144.6,39.7l0.9,1.2l-0.7,0.5l0,0c0.8,0,1.5,0.4,2,1c0.3,0.4,0.5,0.8,0.6,1.2c0,0.4,0,0.8,0,1.2
			c0.9,0.1,1.7,0.5,2.3,1.3c0.4,0.5,0.6,1.1,0.5,1.8c0,0.7-0.4,1.3-1.1,1.9l-4.1,3.2l-0.9-1.2l3.7-2.9c0.4-0.3,0.7-0.7,0.7-1.1
			c0.1-0.4-0.1-0.8-0.3-1.2c-0.3-0.4-0.6-0.6-1-0.6c-0.4-0.1-0.8,0.1-1.3,0.4l-3.7,2.9l-0.9-1.2l3.7-2.9c0.4-0.3,0.7-0.7,0.7-1.1
			c0-0.4-0.1-0.8-0.3-1.2c-0.3-0.4-0.6-0.6-1-0.6c-0.4-0.1-0.8,0.1-1.3,0.4l-3.7,2.9l-0.9-1.2L144.6,39.7z"/>
		<path class="st1" d="M149.5,54.2c-0.5,0.3-0.9,0.7-1,1.2c-0.1,0.4-0.1,0.9,0.2,1.4c0.3,0.5,0.8,0.9,1.5,1.1l-0.3,1.4
			c-1.1-0.3-1.9-0.8-2.4-1.8c-0.2-0.3-0.3-0.7-0.4-1.1c0-0.2,0-0.4,0-0.6c0-0.2,0-0.4,0-0.6c0.1-0.4,0.3-0.8,0.7-1.3
			c0.3-0.4,0.8-0.8,1.5-1.2c0.7-0.4,1.3-0.6,1.8-0.7c0.5-0.1,1-0.1,1.4,0c0.4,0.1,0.8,0.3,1.1,0.6c0.3,0.3,0.5,0.5,0.7,0.9
			c0.4,0.8,0.5,1.5,0.3,2.3c-0.2,0.8-0.8,1.5-1.7,2l-1.1,0.6L149.5,54.2z M152.1,56.4c0.5-0.3,0.8-0.7,1-1.1
			c0.1-0.4,0.1-0.8-0.2-1.2c-0.2-0.4-0.5-0.7-0.9-0.8c-0.4-0.1-0.9,0-1.4,0.3L152.1,56.4z"/>
		<path class="st1" d="M156.8,58.3l0.6,1.4l-0.8,0.3l0,0c0.8,0.2,1.3,0.7,1.6,1.5c0.2,0.6,0.2,1.2,0,1.8c-0.2,0.7-0.8,1.2-1.6,1.5
			l-4.8,2l-0.6-1.4l4.3-1.8c0.5-0.2,0.8-0.5,1-0.9c0.2-0.4,0.2-0.8,0-1.2s-0.4-0.7-0.8-0.8c-0.4-0.2-0.8-0.1-1.3,0.1l-4.3,1.8
			l-0.6-1.4L156.8,58.3z"/>
		<path class="st1" d="M162.2,65.9l0.5,1.4l-2.3,0.7l0.3,1.1l-1.1,0.4l-0.3-1.1l-4.3,1.4c-0.4,0.1-0.5,0.3-0.4,0.7l0.2,0.5l-1.4,0.4
			l-0.2-0.8c-0.2-0.5-0.1-1,0.1-1.4c0.2-0.4,0.6-0.7,1.2-0.9l4.5-1.4l-0.2-0.7l1.1-0.4l0.2,0.7L162.2,65.9z"/>
	</g>
	<g>
		<path class="st1" d="M52.3,149.1c1.5-2.9,4.8-3.9,7.8-2.4c2.6,1.4,3.6,3.9,2.9,6.1l-2.2-1.1c0.3-1-0.3-2.3-1.7-3
			c-1.7-0.9-3.7-0.3-4.7,1.5c-0.9,1.8-0.3,3.8,1.4,4.7c1.4,0.7,3,0.4,3.6-0.4l2.2,1.1c-1.3,1.8-4.2,2.6-6.9,1.2
			C51.9,155.3,50.8,152,52.3,149.1z"/>
		<path class="st1" d="M65.7,149.7l7.7,2.5l-0.7,2l-5.4-1.8l-0.7,2.1l4.9,1.6l-0.7,2l-4.9-1.6l-0.7,2.2l5.5,1.8l-0.7,2l-7.8-2.5
			L65.7,149.7z"/>
		<path class="st1" d="M79.1,164.3l-1.5-3.7l-1.9-0.3l-0.6,3.4l-2.4-0.4l1.8-10.7l4.3,0.7c2.7,0.5,4.1,2.2,3.7,4.4
			c-0.2,1.5-1.1,2.5-2.5,2.9l1.8,4.3L79.1,164.3z M76.1,158.1l1.8,0.3c1.3,0.2,2.1-0.2,2.3-1.2c0.2-1-0.5-1.7-1.8-1.9l-1.8-0.3
			L76.1,158.1z"/>
		<path class="st1" d="M92.9,156.3l-3.5-0.1l-0.2,8.7l-2.4-0.1l0.2-8.7l-3.5-0.1l0-2.1l9.5,0.2L92.9,156.3z"/>
		<path class="st1" d="M96.4,153.8l0.9,10.8l-2.4,0.2L94,154L96.4,153.8z"/>
		<path class="st1" d="M98,153.7l7.8-1.5l0.4,2.1l-5.4,1l0.5,2.4l4.8-0.9l0.4,2.1l-4.8,0.9l0.8,4.1l-2.4,0.4L98,153.7z"/>
		<path class="st1" d="M109.1,151.1l3.1,10.4l-2.3,0.7l-3.1-10.4L109.1,151.1z"/>
		<path class="st1" d="M110.6,150.7l7.4-3.1l0.8,1.9l-5.2,2.2l0.8,2l4.8-2l0.8,1.9l-4.8,2l0.9,2.2l5.3-2.2l0.8,1.9l-7.6,3.1
			L110.6,150.7z"/>
		<path class="st1" d="M119.2,147.1l3.6-2.2c3.1-1.9,6.1-1.1,7.8,1.6s0.9,5.8-2.1,7.7l-3.6,2.2L119.2,147.1z M127.4,152.3
			c1.8-1.1,2.2-2.8,1.1-4.5c-1.1-1.8-2.8-2.1-4.6-1l-1.6,1l3.4,5.6L127.4,152.3z"/>
	</g>
	<circle class="st2" cx="89.5" cy="89.5" r="57.5"/>
	<g>
		<path class="st2" d="M149.1,133.2c-0.6,0.3-1.1,0.6-1.1,0.6l-0.5,2.5l-1.6-1.9c0,0-0.6,0.1-1.2,0.2c-0.6,0.1-1.2,0.1-1.2,0.1
			s0.3-0.5,0.6-1c0.3-0.5,0.6-1.1,0.6-1.1l-1.1-2.2c0,0,0.6,0.1,1.2,0.2c0.6,0.1,1.2,0.2,1.2,0.2l1.7-1.8l0.4,2.4l2.2,1.1
			C150.2,132.6,149.7,132.9,149.1,133.2z M155,123.9c-0.5,0.4-1,0.7-1,0.7l-0.1,2.5l-1.9-1.6c0,0-0.6,0.2-1.2,0.3
			c-0.6,0.2-1.2,0.3-1.2,0.3s0.2-0.6,0.5-1.1c0.2-0.6,0.4-1.1,0.4-1.1l-1.4-2c0,0,0.6,0,1.2,0.1c0.6,0,1.2,0,1.2,0l1.4-2l0.7,2.3
			l2.4,0.7C156,123.1,155.5,123.5,155,123.9z M158.6,115.9c0.1,0.6,0.1,1.3,0.1,1.3l-2.1-1.3l-2.2,1l0.6-2.4c0,0-0.4-0.4-0.8-0.9
			c-0.4-0.4-0.8-0.9-0.8-0.9l2.4-0.3c0,0,0.3-0.5,0.6-1.1c0.3-0.5,0.5-1.1,0.5-1.1s0.3,0.5,0.5,1.1c0.3,0.6,0.5,1.1,0.5,1.1l2.4,0.4
			l-1.8,1.8C158.5,114.6,158.5,115.2,158.6,115.9z M161.7,105.3c0.2,0.6,0.3,1.2,0.3,1.2l-2.3-1l-2.1,1.3l0.2-2.4c0,0-0.5-0.4-1-0.8
			c-0.5-0.4-1-0.7-1-0.7l2.4-0.6c0,0,0.2-0.6,0.4-1.2c0.2-0.6,0.4-1.2,0.4-1.2s0.4,0.5,0.7,1c0.3,0.5,0.7,1,0.7,1l2.5,0l-1.5,2
			C161.4,104,161.6,104.6,161.7,105.3z M141.1,139.8l2,1.4c0,0-0.6,0.2-1.2,0.4c-0.6,0.2-1.2,0.4-1.2,0.4l-0.9,2.4l-1.3-2.1
			c0,0-0.6,0-1.2,0c-0.6,0-1.2-0.1-1.2-0.1s0.4-0.5,0.8-0.9c0.4-0.5,0.8-1,0.8-1l-0.8-2.3c0,0,0.6,0.2,1.2,0.4
			c0.6,0.2,1.2,0.4,1.2,0.4l1.9-1.5L141.1,139.8z M44.7,140.3l-0.6,2.4c0,0,0.4,0.5,0.8,0.9c0.4,0.4,0.8,0.9,0.8,0.9
			s-0.6,0.1-1.2,0.1c-0.6,0.1-1.2,0.1-1.2,0.1l-1.2,2.1l-1-2.4c0,0-0.6-0.2-1.2-0.3c-0.6-0.2-1.2-0.4-1.2-0.4l2-1.5l-0.1-2.5l2,1.4
			c0,0,0.6-0.2,1.1-0.5C44.1,140.6,44.7,140.3,44.7,140.3z M16.8,105.6l2.5-0.1c0,0,0.3-0.5,0.6-1.1c0.3-0.5,0.7-1,0.7-1
			s0.2,0.6,0.4,1.1c0.2,0.6,0.4,1.1,0.4,1.1l2.4,0.5c0,0-0.5,0.4-0.9,0.8c-0.5,0.4-0.9,0.8-0.9,0.8l0.3,2.4l-2.1-1.2l-2.2,1.1
			c0,0,0.1-0.6,0.2-1.3c0.1-0.6,0.3-1.2,0.3-1.2L16.8,105.6z M21.8,120.5l0.1-2.5l-1.9-1.7l2.4-0.5c0,0,0.2-0.6,0.5-1.1
			c0.2-0.6,0.5-1.1,0.5-1.1l1.2,2.1l2.4,0.1c0,0-0.4,0.5-0.8,0.9c-0.4,0.5-0.8,0.9-0.8,0.9l0.7,2.4l-2.3-0.9L21.8,120.5z M29,128.6
			l-1.8,1.7l-0.3-2.5c0,0-0.5-0.3-1.1-0.7c-0.5-0.4-1.1-0.7-1.1-0.7l2.3-0.8l0.6-2.4l1.5,1.9c0,0,0.6-0.1,1.2-0.1
			c0.6-0.1,1.2-0.1,1.2-0.1l-1.3,2.1c0,0,0.3,0.6,0.5,1.1c0.1,0.3,0.3,0.6,0.3,0.8c0.1,0.2,0.2,0.3,0.2,0.3s-0.6-0.1-1.2-0.3
			C29.6,128.7,29,128.6,29,128.6z M31,135.6l2.2-1.2l0.3-2.5l1.8,1.7c0,0,0.6-0.1,1.2-0.3c0.6-0.2,1.2-0.3,1.2-0.3l-1,2.2
			c0,0,0.3,0.5,0.7,1c0.3,0.5,0.7,1,0.7,1s-0.6,0-1.2-0.1c-0.6-0.1-1.2-0.1-1.2-0.1l-1.5,1.9l-0.6-2.5c0,0-0.6-0.2-1.2-0.5
			C31.6,135.9,31,135.6,31,135.6z"/>
	</g>
	<g>
		<path d="M67.3,111.8c0,2-1,3.8-4.4,7.3l-2.8,2.9h7.6v3.7h-14v-2.5l6.4-6.6c2.4-2.4,2.9-3.7,2.9-4.8c0-1.4-0.8-2.4-2.7-2.4
			c-1.8,0-2.7,1.4-2.7,2.9h-4.3c0-3.8,2.9-6.7,7-6.7C64.7,105.7,67.3,108.2,67.3,111.8z"/>
		<path d="M82.9,108.8l-7.3,17h-4.6l6.7-15.8h-8.4v-3.8h13.4V108.8z"/>
		<path d="M99.3,115.9c0,6.8-3.2,10.3-7.5,10.3s-7.5-3.4-7.5-10.3c0-6.9,3.2-10.3,7.5-10.3S99.3,109.1,99.3,115.9z M88.4,115.9
			c0,4.4,1.4,6.5,3.4,6.5s3.4-2,3.4-6.5c0-4.5-1.4-6.5-3.4-6.5S88.4,111.5,88.4,115.9z"/>
		<path d="M108.8,125.7h-4.3V110H101v-3.8h7.8V125.7z"/>
		<path d="M125.7,108.8l-7.3,17h-4.6l6.7-15.8h-8.4v-3.8h13.4V108.8z"/>
	</g>
	<g>
		<path d="M61.2,88.1h6.2v8.4H44.2v-8.4h6.2V67h-6.2v-8.4h23.2V67h-6.2V88.1z"/>
		<path d="M69.1,82.7h8.1c1.6,3.7,5.2,5.6,9.2,5.6c1.5,0,4.5-0.1,4.5-2.1c0-3-7.7-3-12.9-4.6c-5.4-1.7-9-5.2-9-10.5
			c0-8,5.5-12.4,13.7-12.4c3.5,0,4.9,0.4,7.8,1.7v-1.6h8.6V72h-8c-0.2-3.3-5.3-5.1-8-5.1c-2.6,0-4.2,0.8-4.2,2.1
			c0,2.5,7.2,2.5,12.2,4.1c5.2,1.6,9.9,5,9.9,11.4c0,8.7-6.9,12-15,12c-3,0-5.9-0.7-8.2-2.4c0,0.3,0,2.3,0,2.3h-8.7V82.7z"/>
		<path d="M139.4,77.6c0,9.9-6.8,19.1-18.8,19.1c-12.1,0-18.8-9.2-18.8-19.1c0-9.9,6.8-19.1,18.8-19.1
			C132.7,58.5,139.4,67.7,139.4,77.6z M114.1,77.6c0,5.8,0.9,10.8,6.5,10.8c5.6,0,6.5-5.6,6.5-10.8c0-5.2-0.9-10.8-6.5-10.8
			C115,66.8,114.1,71.7,114.1,77.6z"/>
	</g>
	<g>
		<path class="st2" d="M149.1,133.2c-0.6,0.3-1.1,0.6-1.1,0.6l-0.5,2.5l-1.6-1.9c0,0-0.6,0.1-1.2,0.2c-0.6,0.1-1.2,0.1-1.2,0.1
			s0.3-0.5,0.6-1c0.3-0.5,0.6-1.1,0.6-1.1l-1.1-2.2c0,0,0.6,0.1,1.2,0.2c0.6,0.1,1.2,0.2,1.2,0.2l1.7-1.8l0.4,2.4l2.2,1.1
			C150.2,132.6,149.7,132.9,149.1,133.2z M155,123.9c-0.5,0.4-1,0.7-1,0.7l-0.1,2.5l-1.9-1.6c0,0-0.6,0.2-1.2,0.3
			c-0.6,0.2-1.2,0.3-1.2,0.3s0.2-0.6,0.5-1.1c0.2-0.6,0.4-1.1,0.4-1.1l-1.4-2c0,0,0.6,0,1.2,0.1c0.6,0,1.2,0,1.2,0l1.4-2l0.7,2.3
			l2.4,0.7C156,123.1,155.5,123.5,155,123.9z M158.6,115.9c0.1,0.6,0.1,1.3,0.1,1.3l-2.1-1.3l-2.2,1l0.6-2.4c0,0-0.4-0.4-0.8-0.9
			c-0.4-0.4-0.8-0.9-0.8-0.9l2.4-0.3c0,0,0.3-0.5,0.6-1.1c0.3-0.5,0.5-1.1,0.5-1.1s0.3,0.5,0.5,1.1c0.3,0.6,0.5,1.1,0.5,1.1l2.4,0.4
			l-1.8,1.8C158.5,114.6,158.5,115.2,158.6,115.9z M161.7,105.3c0.2,0.6,0.3,1.2,0.3,1.2l-2.3-1l-2.1,1.3l0.2-2.4c0,0-0.5-0.4-1-0.8
			c-0.5-0.4-1-0.7-1-0.7l2.4-0.6c0,0,0.2-0.6,0.4-1.2c0.2-0.6,0.4-1.2,0.4-1.2s0.4,0.5,0.7,1c0.3,0.5,0.7,1,0.7,1l2.5,0l-1.5,2
			C161.4,104,161.6,104.6,161.7,105.3z M163.3,94.3c0.2,0.6,0.5,1.2,0.5,1.2l-2.4-0.6l-1.8,1.6l-0.2-2.4c0,0-0.5-0.3-1.1-0.6
			c-0.5-0.3-1.1-0.6-1.1-0.6l2.2-1l0.4-2.4l1.7,1.8l2.4-0.4l-1.2,2.2C162.8,93.2,163,93.7,163.3,94.3z M163.8,84.4l-2.5-0.3
			c0,0-0.4,0.5-0.8,0.9c-0.4,0.5-0.8,0.9-0.8,0.9l-0.5-2.4l-2.3-0.9c0,0,0.5-0.3,1-0.6c0.5-0.3,1-0.7,1-0.7l0-2.4l1.9,1.5l2.4-0.7
			c0,0-0.2,0.6-0.4,1.2c-0.2,0.6-0.4,1.2-0.4,1.2L163.8,84.4z M141.1,139.8l2,1.4c0,0-0.6,0.2-1.2,0.4c-0.6,0.2-1.2,0.4-1.2,0.4
			l-0.9,2.4l-1.3-2.1c0,0-0.6,0-1.2,0c-0.6,0-1.2-0.1-1.2-0.1s0.4-0.5,0.8-0.9c0.4-0.5,0.8-1,0.8-1l-0.8-2.3c0,0,0.6,0.2,1.2,0.4
			c0.6,0.2,1.2,0.4,1.2,0.4l1.9-1.5L141.1,139.8z M44.7,140.3l-0.6,2.4c0,0,0.4,0.5,0.8,0.9c0.4,0.4,0.8,0.9,0.8,0.9
			s-0.6,0.1-1.2,0.1c-0.6,0.1-1.2,0.1-1.2,0.1l-1.2,2.1l-1-2.4c0,0-0.6-0.2-1.2-0.3c-0.6-0.2-1.2-0.4-1.2-0.4l2-1.5l-0.1-2.5l2,1.4
			c0,0,0.6-0.2,1.1-0.5C44.1,140.6,44.7,140.3,44.7,140.3z M15.7,84.7c-0.2-0.6-0.5-1.2-0.5-1.2l2.4,0.6l1.8-1.6l0.2,2.4
			c0,0,0.5,0.3,1.1,0.6c0.5,0.3,1.1,0.6,1.1,0.6l-2.2,1l-0.4,2.4l-1.7-1.8L15,88.1l1.2-2.2C16.2,85.8,16,85.3,15.7,84.7z M15.2,94.6
			l2.5,0.3c0,0,0.4-0.5,0.8-0.9c0.4-0.5,0.8-0.9,0.8-0.9l0.5,2.4l2.3,0.9c0,0-0.5,0.3-1,0.6c-0.5,0.3-1,0.7-1,0.7l0,2.4L18,98.5
			l-2.4,0.7c0,0,0.2-0.6,0.4-1.2c0.2-0.6,0.4-1.2,0.4-1.2L15.2,94.6z M16.8,105.6l2.5-0.1c0,0,0.3-0.5,0.6-1.1c0.3-0.5,0.7-1,0.7-1
			s0.2,0.6,0.4,1.1c0.2,0.6,0.4,1.1,0.4,1.1l2.4,0.5c0,0-0.5,0.4-0.9,0.8c-0.5,0.4-0.9,0.8-0.9,0.8l0.3,2.4l-2.1-1.2l-2.2,1.1
			c0,0,0.1-0.6,0.2-1.3c0.1-0.6,0.3-1.2,0.3-1.2L16.8,105.6z M21.8,120.5l0.1-2.5l-1.9-1.7l2.4-0.5c0,0,0.2-0.6,0.5-1.1
			c0.2-0.6,0.5-1.1,0.5-1.1l1.2,2.1l2.4,0.1c0,0-0.4,0.5-0.8,0.9c-0.4,0.5-0.8,0.9-0.8,0.9l0.7,2.4l-2.3-0.9L21.8,120.5z M29,128.6
			l-1.8,1.7l-0.3-2.5c0,0-0.5-0.3-1.1-0.7c-0.5-0.4-1.1-0.7-1.1-0.7l2.3-0.8l0.6-2.4l1.5,1.9c0,0,0.6-0.1,1.2-0.1
			c0.6-0.1,1.2-0.1,1.2-0.1l-1.3,2.1c0,0,0.3,0.6,0.5,1.1c0.1,0.3,0.3,0.6,0.3,0.8c0.1,0.2,0.2,0.3,0.2,0.3s-0.6-0.1-1.2-0.3
			C29.6,128.7,29,128.6,29,128.6z M31,135.6l2.2-1.2l0.3-2.5l1.8,1.7c0,0,0.6-0.1,1.2-0.3c0.6-0.2,1.2-0.3,1.2-0.3l-1,2.2
			c0,0,0.3,0.5,0.7,1c0.3,0.5,0.7,1,0.7,1s-0.6,0-1.2-0.1c-0.6-0.1-1.2-0.1-1.2-0.1l-1.5,1.9l-0.6-2.5c0,0-0.6-0.2-1.2-0.5
			C31.6,135.9,31,135.6,31,135.6z"/>
	</g>
</g>
</svg>
