<?xml version="1.0" encoding="utf-8"?>
<!-- Generator: Adobe Illustrator 28.0.0, SVG Export Plug-In . SVG Version: 6.00 Build 0)  -->
<svg version="1.1" id="Layer_1" xmlns="http://www.w3.org/2000/svg" xmlns:xlink="http://www.w3.org/1999/xlink" x="0px" y="0px"
	 viewBox="0 0 180 180" style="enable-background:new 0 0 180 180;" xml:space="preserve">
<style type="text/css">
	.st0{fill:#AD4A5E;}
	.st1{fill:#F4F4ED;}
	.st2{fill:#FFFFFF;}
</style>
<g>
	<circle class="st0" cx="90" cy="90" r="84"/>
	<g>
		<path class="st1" d="M17.5,116.6l-1.2-3.7c-0.1-0.4-0.2-0.8-0.3-1.2c0-0.4,0.1-0.8,0.3-1.3c0.1-0.4,0.4-0.8,0.8-1.1
			c0.4-0.3,0.8-0.6,1.4-0.8c0.8-0.2,1.6-0.2,2.4,0.1c0.8,0.3,1.4,1,1.8,2.1l0.7,2.3l4.1-1.3l0.5,1.5L17.5,116.6z M21.9,113.5
			l-0.7-2.3c-0.2-0.6-0.5-0.9-1-1.1c-0.4-0.2-0.9-0.2-1.3,0c-0.4,0.1-0.6,0.3-0.8,0.4c-0.2,0.2-0.3,0.4-0.4,0.6
			c-0.1,0.4-0.1,0.8,0.1,1.2l0.7,2.2L21.9,113.5z"/>
		<path class="st1" d="M17.8,106.4l-0.3-1.5l0.8-0.2l0,0c-0.7-0.4-1.1-1-1.3-1.8c-0.1-0.6,0-1.2,0.3-1.7l1.5,0.8
			c-0.2,0.4-0.3,0.7-0.2,1.1c0.1,0.4,0.3,0.7,0.6,0.9c0.3,0.3,0.7,0.3,1.3,0.2l4.6-0.9l0.3,1.5L17.8,106.4z"/>
		<path class="st1" d="M13.6,100.5L13.4,99l1.6-0.2l0.2,1.5L13.6,100.5z M16.7,100.1l-0.2-1.5l7.7-1l0.2,1.5L16.7,100.1z"/>
		<path class="st1" d="M16.3,97.2l-0.1-1.6l5.4-2l0,0L16.1,92L16,90.4l7.9,2.4L24,94L16.3,97.2z"/>
		<path class="st1" d="M23.3,85.2L23.3,85.2c0.3,0.2,0.4,0.4,0.5,0.7c0.1,0.3,0.2,0.7,0.1,1.2C24,88,23.7,88.6,23.2,89
			c-0.5,0.5-1,0.7-1.7,0.6c-0.7,0-1.2-0.3-1.6-0.7c-0.4-0.4-0.6-1.1-0.6-1.9l0.1-2.1l-0.8,0c-0.7,0-1.1,0.5-1.1,1.5
			c0,0.4,0,0.7,0.1,0.9c0.1,0.2,0.2,0.4,0.5,0.6L17,89c-0.7-0.6-1.1-1.5-1-2.6c0-1,0.3-1.7,0.7-2.2c0.4-0.5,1.1-0.8,2.1-0.8l5.3,0.3
			L24,85.2L23.3,85.2z M20.7,85l-0.1,1.8c0,0.9,0.3,1.3,0.9,1.4c0.3,0,0.5-0.1,0.7-0.3c0.2-0.2,0.3-0.6,0.4-1.1c0-0.6,0-1.1-0.2-1.4
			c-0.2-0.2-0.5-0.4-1.1-0.4L20.7,85z"/>
		<path class="st1" d="M24,76.1c0.3,0.4,0.6,0.8,0.7,1.3c0.2,0.5,0.2,1,0.1,1.6c-0.1,0.9-0.6,1.6-1.3,2.2c-0.7,0.6-1.8,0.8-3.2,0.6
			c-1.4-0.2-2.4-0.8-2.9-1.6c-0.5-0.8-0.7-1.6-0.5-2.5c0.1-0.6,0.3-1.1,0.6-1.5c0.3-0.4,0.7-0.7,1.2-1l0.8,1.3
			c-0.6,0.3-0.9,0.8-1.1,1.4c-0.2,1.3,0.5,2,2.1,2.3c1.6,0.2,2.5-0.3,2.7-1.6c0.1-0.6-0.1-1.2-0.6-1.6L24,76.1z"/>
		<path class="st1" d="M17.7,74.3l0.4-1.6l5.7-0.3l0,0L19,69.3l0.4-1.6l8.3,5.6c0.5,0.4,0.8,0.7,1,1.2c0.1,0.4,0.1,0.9,0,1.3
			l-0.1,0.5l-1.4-0.4l0.1-0.4c0-0.2,0-0.4,0-0.6c-0.1-0.2-0.2-0.4-0.4-0.5l-1.2-0.7L17.7,74.3z"/>
		<path class="st1" d="M18.5,61.3l0.6-1.5L29.2,64l-0.6,1.5L18.5,61.3z"/>
		<path class="st1" d="M23,58.5l0.7-1.3l0.7,0.4l0,0c-0.3-0.7-0.3-1.5,0.1-2.2c0.3-0.6,0.8-1,1.4-1.2c0.6-0.2,1.4-0.2,2.2,0.2
			l4.6,2.4l-0.7,1.3l-4.1-2.2c-0.5-0.3-0.9-0.3-1.3-0.2c-0.4,0.1-0.7,0.4-0.9,0.7c-0.2,0.4-0.2,0.8-0.1,1.2c0.1,0.4,0.4,0.7,0.9,1
			l4.1,2.2L30,62.1L23,58.5z"/>
		<path class="st1" d="M28.4,51.3L28,51.9l-1-0.7l0.4-0.6l-0.9-0.6c-0.6-0.4-1-0.9-1.1-1.4c-0.1-0.5,0.1-1,0.4-1.5l0.5-0.8l1.2,0.8
			l-0.5,0.7c-0.3,0.4-0.2,0.7,0.2,0.9l0.9,0.6l0.8-1.3l1,0.7L29.2,50l5.5,3.6L34,54.9L28.4,51.3z"/>
		<path class="st1" d="M32.7,49.6c-0.6-0.5-1.1-0.9-1.4-1.3c-0.3-0.4-0.4-0.8-0.5-1.2c-0.1-0.3-0.1-0.7,0-1.1
			c0.1-0.4,0.3-0.8,0.6-1.3c0.4-0.5,0.8-0.8,1.1-1c0.4-0.2,0.7-0.2,1.1-0.2c0.4-0.1,0.8,0,1.3,0.2c0.4,0.2,1,0.5,1.6,1
			c0.6,0.5,1.1,0.9,1.4,1.3c0.3,0.4,0.4,0.8,0.5,1.2c0,0.1,0,0.3,0,0.5c0,0.2,0,0.4,0,0.6c-0.1,0.4-0.3,0.9-0.6,1.4
			c-0.4,0.4-0.7,0.8-1.1,0.9c-0.4,0.2-0.7,0.3-1.1,0.3c-0.4,0-0.8,0-1.3-0.2C33.9,50.4,33.4,50.1,32.7,49.6z M35.6,45.9
			c-0.4-0.3-0.8-0.6-1-0.7c-0.2-0.1-0.5-0.2-0.7-0.2c-0.2,0-0.4,0-0.6,0.1c-0.2,0.1-0.4,0.3-0.6,0.5c-0.2,0.2-0.3,0.4-0.3,0.7
			c0,0.2,0,0.4,0,0.7c0.1,0.2,0.2,0.4,0.3,0.6c0.2,0.2,0.5,0.5,0.9,0.8c0.4,0.3,0.8,0.6,1,0.7c0.2,0.1,0.5,0.2,0.7,0.2
			c0.2,0,0.4-0.1,0.6-0.2c0.2-0.1,0.4-0.3,0.6-0.5c0.2-0.2,0.3-0.4,0.3-0.7c0-0.2,0-0.5,0-0.6c-0.1-0.2-0.2-0.5-0.4-0.7
			C36.3,46.5,36.1,46.2,35.6,45.9z"/>
		<path class="st1" d="M35.1,40.5l1-1.1l0.6,0.6l0,0c-0.1-0.8,0.1-1.5,0.7-2.1c0.4-0.4,0.9-0.7,1.5-0.7l0.2,1.7
			c-0.4,0.1-0.7,0.2-1,0.5c-0.3,0.3-0.4,0.6-0.4,1c0,0.4,0.2,0.8,0.6,1.2l3.4,3.2l-1,1.1L35.1,40.5z"/>
		<path class="st1" d="M39.6,35.6l1.2-0.9l0.5,0.6l0,0c0-0.8,0.4-1.5,1-2c0.4-0.3,0.8-0.5,1.2-0.6c0.4,0,0.8,0,1.2,0
			c0-0.9,0.5-1.7,1.3-2.3c0.5-0.4,1.1-0.6,1.8-0.6c0.7,0,1.3,0.4,1.9,1.1L53,35l-1.2,0.9l-2.9-3.6c-0.3-0.4-0.7-0.7-1.1-0.7
			c-0.4,0-0.8,0.1-1.2,0.4c-0.4,0.3-0.6,0.6-0.6,1c-0.1,0.4,0.1,0.8,0.4,1.3l2.9,3.6l-1.2,0.9l-2.9-3.6c-0.3-0.4-0.7-0.7-1.1-0.7
			c-0.4,0-0.8,0.1-1.2,0.4c-0.4,0.3-0.6,0.6-0.6,1c-0.1,0.4,0.1,0.8,0.4,1.3l2.9,3.6l-1.2,0.9L39.6,35.6z"/>
		<path class="st1" d="M57.8,31.5L57.8,31.5c0,0.3-0.1,0.6-0.3,0.8c-0.2,0.3-0.5,0.5-0.9,0.8c-0.7,0.4-1.4,0.5-2,0.4
			c-0.6-0.1-1.1-0.5-1.5-1.1c-0.3-0.6-0.4-1.1-0.3-1.7c0.1-0.6,0.6-1.1,1.3-1.5l1.8-1l-0.4-0.7c-0.3-0.6-0.9-0.6-1.8-0.1
			c-0.3,0.2-0.6,0.4-0.7,0.6c-0.2,0.2-0.2,0.4-0.2,0.7l-1.5-0.2c0.1-1,0.7-1.7,1.7-2.3c0.8-0.5,1.6-0.7,2.3-0.7
			c0.7,0.1,1.3,0.5,1.8,1.3l2.7,4.6l-1.3,0.8L57.8,31.5z M56.5,29.2l-1.6,0.9c-0.8,0.5-1,0.9-0.7,1.5c0.1,0.2,0.3,0.4,0.6,0.4
			c0.3,0.1,0.7,0,1.1-0.3c0.6-0.3,0.9-0.6,1.1-0.9c0.1-0.3,0-0.6-0.3-1.2L56.5,29.2z"/>
		<path class="st1" d="M57,21.2l1.4-0.6l1,2.2l1-0.5l0.5,1.1l-1,0.5l1.9,4.1c0.2,0.4,0.4,0.5,0.7,0.3l0.5-0.2l0.6,1.3L63,29.6
			c-0.5,0.2-1,0.3-1.4,0.1c-0.5-0.1-0.8-0.5-1.1-1.1l-2-4.2l-0.7,0.3l-0.5-1.1l0.7-0.3L57,21.2z"/>
		<path class="st1" d="M61,18.6l1.4-0.6l0.6,1.5L61.6,20L61,18.6z M62.2,21.5l1.4-0.6l2.9,7.3l-1.4,0.6L62.2,21.5z"/>
		<path class="st1" d="M66.8,23.8c-0.2-0.8-0.4-1.4-0.4-1.9c0-0.5,0.1-0.9,0.3-1.2c0.1-0.3,0.3-0.6,0.6-0.9c0.3-0.3,0.7-0.5,1.3-0.7
			c0.6-0.2,1.1-0.2,1.5-0.1c0.4,0.1,0.7,0.2,1,0.4c0.4,0.2,0.7,0.5,0.9,0.9c0.2,0.4,0.5,1,0.7,1.8c0.2,0.8,0.4,1.4,0.4,1.9
			c0,0.4-0.1,0.9-0.3,1.3c-0.1,0.1-0.1,0.3-0.2,0.4c-0.1,0.2-0.2,0.3-0.4,0.5c-0.3,0.3-0.7,0.6-1.3,0.7c-0.6,0.2-1,0.2-1.5,0.1
			c-0.4-0.1-0.8-0.2-1-0.4c-0.4-0.2-0.7-0.5-0.9-0.9C67.2,25.2,67,24.6,66.8,23.8z M71.3,22.5c-0.2-0.5-0.3-0.9-0.4-1.1
			c-0.1-0.2-0.3-0.4-0.5-0.5c-0.2-0.1-0.4-0.2-0.6-0.3c-0.2,0-0.5,0-0.7,0.1c-0.2,0.1-0.5,0.2-0.6,0.4c-0.2,0.2-0.3,0.3-0.4,0.5
			c-0.1,0.2-0.1,0.5-0.1,0.7c0,0.3,0.1,0.7,0.3,1.2c0.2,0.5,0.3,0.9,0.4,1.1c0.1,0.2,0.3,0.4,0.5,0.6c0.2,0.1,0.4,0.2,0.6,0.2
			c0.2,0,0.5,0,0.7,0c0.3-0.1,0.5-0.2,0.7-0.4c0.2-0.2,0.3-0.3,0.4-0.5c0.1-0.2,0.1-0.5,0.1-0.7C71.5,23.4,71.4,23,71.3,22.5z"/>
		<path class="st1" d="M74,17.7l1.5-0.3l0.1,0.8l0,0c0.4-0.7,1-1.1,1.8-1.3c0.6-0.1,1.2,0,1.8,0.4c0.6,0.4,1,1,1.2,1.9l0.9,5.1
			l-1.5,0.3L79,20.1c-0.1-0.5-0.3-0.9-0.6-1.2c-0.3-0.2-0.7-0.3-1.1-0.2c-0.4,0.1-0.8,0.3-1,0.6C76,19.6,75.9,20,76,20.6l0.8,4.6
			l-1.5,0.3L74,17.7z"/>
		<path class="st1" d="M87.1,12.8l1.5,0l2.9,7.2l3.1-7.1l1.5,0l-0.2,11l-1.6,0l0.2-6.8l0,0L92,22.3l-1.3,0L88.6,17l0,0l-0.2,6.8
			l-1.6,0L87.1,12.8z"/>
		<path class="st1" d="M102,24.2L102,24.2c-0.2,0.2-0.5,0.4-0.8,0.5c-0.3,0.1-0.7,0.1-1.2,0c-0.8-0.1-1.4-0.5-1.8-1
			c-0.4-0.5-0.5-1.1-0.4-1.8c0.1-0.6,0.4-1.2,0.9-1.5c0.5-0.4,1.1-0.5,1.9-0.4l2.1,0.3l0.1-0.8c0.1-0.7-0.3-1.1-1.4-1.2
			c-0.4-0.1-0.7-0.1-0.9,0c-0.2,0.1-0.4,0.2-0.6,0.4l-1-1.1c0.7-0.7,1.6-0.9,2.7-0.7c0.9,0.1,1.7,0.4,2.2,0.9
			c0.5,0.5,0.7,1.2,0.5,2.1l-0.9,5.3l-1.5-0.2L102,24.2z M102.5,21.7l-1.8-0.3c-0.9-0.1-1.4,0.1-1.4,0.7c0,0.3,0,0.5,0.2,0.7
			c0.2,0.2,0.5,0.4,1,0.5c0.6,0.1,1.1,0.1,1.4,0c0.3-0.1,0.4-0.5,0.5-1.1L102.5,21.7z"/>
		<path class="st1" d="M107.4,18l1.5,0.4l-0.2,0.8l0,0c0.6-0.5,1.4-0.6,2.1-0.4c0.6,0.2,1.1,0.5,1.5,1.1c0.4,0.6,0.4,1.3,0.2,2.2
			l-1.4,5l-1.5-0.4l1.3-4.5c0.1-0.5,0.1-1-0.1-1.3c-0.2-0.4-0.5-0.6-0.9-0.7c-0.4-0.1-0.8-0.1-1.2,0.1c-0.4,0.2-0.6,0.6-0.8,1.1
			l-1.3,4.5l-1.5-0.4L107.4,18z"/>
		<path class="st1" d="M117.1,28.7c-0.7,0.3-1.4,0.4-2.1,0.1c-0.4-0.2-0.8-0.5-1-0.8c-0.2-0.3-0.4-0.6-0.5-0.9c-0.1-0.3-0.1-0.7,0-1
			c0.1-0.4,0.3-1,0.7-2c0.4-1,0.7-1.6,1-1.9c0.2-0.3,0.5-0.5,0.8-0.7c0.3-0.2,0.6-0.3,1-0.3c0.4,0,0.8,0,1.2,0.2
			c0.7,0.3,1.2,0.8,1.4,1.6l0.3-0.8l1.4,0.6l-2.9,7c-0.5,1.1-1.1,1.7-1.9,2c-0.8,0.3-1.6,0.2-2.4-0.1c-0.9-0.4-1.6-1.2-1.9-2.2
			l1.5-0.4c0.1,0.2,0.3,0.5,0.4,0.7c0.2,0.2,0.4,0.4,0.6,0.5c0.5,0.2,0.9,0.2,1.3,0.1c0.4-0.2,0.7-0.5,0.9-1L117.1,28.7z
			 M115.6,24.7c-0.2,0.6-0.4,0.9-0.4,1.2c-0.1,0.2-0.1,0.4,0,0.6c0,0.2,0.1,0.3,0.3,0.5c0.1,0.2,0.3,0.4,0.6,0.5
			c0.3,0.1,0.5,0.1,0.8,0.1c0.2,0,0.4-0.1,0.6-0.2c0.2-0.1,0.3-0.2,0.5-0.4c0.1-0.2,0.3-0.6,0.5-1.1c0.2-0.6,0.4-1,0.5-1.2
			c0.1-0.2,0-0.4,0-0.6c0-0.2-0.1-0.4-0.3-0.6c-0.1-0.2-0.3-0.3-0.6-0.5c-0.3-0.1-0.5-0.1-0.8-0.1c-0.2,0-0.4,0.1-0.6,0.2
			c-0.2,0.1-0.3,0.2-0.4,0.4C116,23.8,115.8,24.2,115.6,24.7z"/>
		<path class="st1" d="M123.8,32.2L123.8,32.2c-0.3,0.1-0.6,0.2-0.9,0.2c-0.3,0-0.7-0.2-1.1-0.4c-0.7-0.4-1.2-0.9-1.4-1.6
			c-0.2-0.6-0.1-1.2,0.2-1.8c0.3-0.6,0.8-0.9,1.3-1.1c0.6-0.2,1.2-0.1,1.9,0.3l1.8,1l0.4-0.7c0.3-0.6,0.1-1.1-0.9-1.6
			c-0.3-0.2-0.6-0.3-0.8-0.3c-0.2,0-0.5,0-0.7,0.2l-0.6-1.4c0.9-0.4,1.8-0.3,2.8,0.3c0.8,0.5,1.4,1,1.7,1.6c0.3,0.6,0.2,1.3-0.2,2.2
			l-2.6,4.6l-1.3-0.7L123.8,32.2z M125,30l-1.6-0.9c-0.8-0.4-1.3-0.4-1.6,0.2c-0.1,0.2-0.1,0.5,0,0.8c0.1,0.3,0.4,0.6,0.8,0.8
			c0.6,0.3,1,0.5,1.3,0.5c0.3,0,0.6-0.3,0.9-0.8L125,30z"/>
		<path class="st1" d="M129.2,32.6c-0.4,0.5-0.5,1-0.4,1.5c0.1,0.5,0.3,0.8,0.8,1.2c0.5,0.4,1.1,0.5,1.8,0.3l0.3,1.4
			c-1.1,0.2-2.1,0.1-2.9-0.6c-0.3-0.2-0.6-0.5-0.8-0.8c-0.1-0.2-0.2-0.3-0.3-0.5c-0.1-0.2-0.2-0.4-0.2-0.6c-0.1-0.4-0.1-0.9,0.1-1.4
			c0.1-0.5,0.4-1.1,0.9-1.8c0.5-0.6,0.9-1.1,1.4-1.4c0.5-0.3,0.9-0.5,1.3-0.6c0.4-0.1,0.8-0.1,1.2,0.1c0.4,0.1,0.7,0.3,1,0.5
			c0.7,0.5,1.1,1.2,1.3,2c0.1,0.8-0.1,1.7-0.7,2.5l-0.8,1L129.2,32.6z M132.6,33.4c0.3-0.5,0.5-1,0.4-1.4c-0.1-0.4-0.3-0.8-0.7-1
			c-0.4-0.3-0.8-0.4-1.2-0.3c-0.4,0.1-0.8,0.4-1.2,0.8L132.6,33.4z"/>
		<path class="st1" d="M137.8,33.2l1.1,1.1l-0.6,0.6l0,0c0.8-0.1,1.5,0.2,2.1,0.8c0.4,0.4,0.6,0.8,0.7,1.1c0.1,0.4,0.1,0.8,0.1,1.2
			c0.9-0.1,1.7,0.3,2.5,1c0.5,0.5,0.7,1,0.8,1.7c0.1,0.7-0.2,1.4-0.8,2l-3.6,3.7l-1.1-1.1l3.3-3.3c0.4-0.4,0.6-0.8,0.6-1.2
			c0-0.4-0.2-0.8-0.5-1.1c-0.3-0.3-0.7-0.5-1.1-0.5c-0.4,0-0.8,0.2-1.2,0.6l-3.3,3.3l-1.1-1.1l3.3-3.3c0.4-0.4,0.6-0.8,0.6-1.2
			c0-0.4-0.2-0.8-0.5-1.1c-0.3-0.3-0.7-0.5-1.1-0.5c-0.4,0-0.8,0.2-1.2,0.6l-3.3,3.3l-1.1-1.1L137.8,33.2z"/>
		<path class="st1" d="M144.6,46.9c-0.5,0.4-0.8,0.8-0.8,1.3c-0.1,0.5,0.1,0.9,0.4,1.3c0.4,0.5,0.9,0.8,1.6,0.9l-0.1,1.5
			c-1.1-0.1-2-0.6-2.6-1.4c-0.2-0.3-0.4-0.7-0.6-1c-0.1-0.2-0.1-0.4-0.1-0.6c0-0.2,0-0.4,0-0.6c0-0.4,0.2-0.9,0.5-1.4
			c0.3-0.5,0.7-1,1.4-1.4c0.6-0.5,1.2-0.8,1.7-0.9c0.5-0.2,1-0.2,1.4-0.2c0.4,0.1,0.8,0.2,1.1,0.4c0.3,0.2,0.6,0.5,0.8,0.7
			c0.5,0.7,0.7,1.5,0.6,2.3c-0.1,0.8-0.6,1.6-1.4,2.2l-1,0.8L144.6,46.9z M147.5,48.7c0.5-0.4,0.7-0.8,0.8-1.2
			c0.1-0.4,0-0.8-0.3-1.2c-0.3-0.4-0.6-0.6-1-0.6c-0.4,0-0.9,0.1-1.4,0.5L147.5,48.7z"/>
		<path class="st1" d="M152.4,50l0.8,1.3l-0.7,0.4l0,0c0.8,0.1,1.4,0.5,1.8,1.2c0.3,0.5,0.4,1.1,0.3,1.8c-0.1,0.7-0.6,1.3-1.3,1.7
			l-4.5,2.6l-0.8-1.3l4-2.4c0.5-0.3,0.8-0.6,0.9-1c0.1-0.4,0.1-0.8-0.2-1.1c-0.2-0.4-0.5-0.6-0.9-0.7c-0.4-0.1-0.8,0-1.3,0.3l-4,2.4
			l-0.8-1.3L152.4,50z"/>
		<path class="st1" d="M158.8,56.7l0.6,1.4l-2.2,1l0.5,1l-1.1,0.5l-0.5-1l-4.1,1.9c-0.4,0.2-0.5,0.4-0.3,0.7l0.2,0.5l-1.3,0.6
			l-0.3-0.7c-0.2-0.5-0.3-0.9-0.1-1.4c0.1-0.5,0.5-0.8,1.1-1.1l4.2-2l-0.3-0.7l1.1-0.5l0.3,0.7L158.8,56.7z"/>
		<path class="st1" d="M155.2,67.4c-0.4,1-0.5,2.1-0.2,3.2c0.4,1.3,1.1,1.8,2.1,1.6c0.8-0.2,1.1-0.8,1-1.7c-0.1-0.4-0.1-0.9-0.2-1.4
			c-0.1-0.9,0-1.7,0.4-2.3c0.4-0.6,1-1.1,1.7-1.3c0.9-0.3,1.7-0.2,2.5,0.2c0.7,0.4,1.3,1.1,1.6,2.2c0.3,1.3,0.3,2.5-0.1,3.6
			l-1.6-0.5c0.3-0.9,0.3-1.8,0.1-2.8c-0.1-0.5-0.4-0.8-0.7-1.1c-0.4-0.3-0.8-0.3-1.3-0.2c-0.3,0.1-0.5,0.3-0.7,0.6
			c-0.2,0.3-0.2,0.7-0.2,1.3c0,0.3,0.1,0.7,0.2,1.2c0.2,1,0,1.8-0.4,2.4c-0.4,0.6-1,1-1.8,1.3c-2,0.5-3.4-0.3-4.1-2.7
			c-0.4-1.5-0.4-2.9,0.3-4.3L155.2,67.4z"/>
		<path class="st1" d="M162.4,73.7l0.3,1.6l-5.1,2.7l0,0l5.7,0.8l0.3,1.6l-9.8-1.6c-0.6-0.1-1.1-0.3-1.4-0.6
			c-0.3-0.3-0.5-0.7-0.5-1.2l-0.1-0.5l1.5-0.3l0.1,0.4c0,0.2,0.1,0.4,0.3,0.5c0.1,0.1,0.3,0.2,0.6,0.3l1.4,0.2L162.4,73.7z"/>
		<path class="st1" d="M158.3,82.7c-0.6,0.7-0.9,1.5-0.8,2.5c0,0.4,0.1,0.8,0.3,1.1c0.2,0.3,0.5,0.4,0.8,0.4c0.3,0,0.5-0.1,0.6-0.3
			c0.1-0.2,0.1-0.4,0.1-0.7l0-1.3c0-0.6,0.2-1.2,0.5-1.6c0.3-0.4,0.8-0.7,1.5-0.7c0.8,0,1.4,0.2,1.9,0.7c0.4,0.5,0.7,1.1,0.7,2
			c0,0.3,0,0.7,0,0.9c0,0.3-0.1,0.5-0.2,0.8c-0.2,0.5-0.4,0.9-0.7,1.3l-1.2-0.9c0.2-0.3,0.4-0.6,0.5-1c0.1-0.3,0.1-0.7,0.1-1.1
			c0-0.5-0.1-0.8-0.3-1c-0.2-0.2-0.4-0.3-0.7-0.2c-0.2,0-0.3,0.1-0.4,0.3c-0.1,0.2-0.2,0.4-0.2,0.8l0,1.3c0,0.8-0.2,1.4-0.6,1.8
			c-0.4,0.4-0.9,0.6-1.6,0.6c-0.8,0-1.4-0.2-1.8-0.8c-0.5-0.6-0.7-1.3-0.8-2.2c-0.1-1.2,0.3-2.4,1.2-3.4L158.3,82.7z"/>
		<path class="st1" d="M166.5,90l0,1.5l-2.4,0l0,1.1l-1.2,0l0-1.1l-4.5-0.1c-0.4,0-0.6,0.2-0.6,0.5l0,0.6l-1.5,0l0-0.8
			c0-0.5,0.2-1,0.5-1.3c0.3-0.3,0.8-0.5,1.4-0.5l4.7,0.1l0-0.8l1.2,0l0,0.8L166.5,90z"/>
		<path class="st1" d="M159.4,95.3c-0.6-0.1-1.1,0.1-1.5,0.4c-0.4,0.3-0.6,0.7-0.6,1.2c-0.1,0.6,0.1,1.2,0.6,1.7l-1.1,1
			c-0.8-0.9-1.1-1.8-1-2.8c0-0.4,0.1-0.8,0.3-1.1c0.1-0.2,0.2-0.4,0.3-0.5c0.1-0.2,0.2-0.3,0.4-0.5c0.3-0.3,0.8-0.5,1.3-0.7
			c0.5-0.2,1.2-0.2,2-0.1c0.8,0.1,1.4,0.2,1.9,0.5c0.5,0.2,0.9,0.5,1.2,0.8c0.3,0.3,0.5,0.7,0.6,1.1c0.1,0.4,0.1,0.7,0.1,1.1
			c-0.1,0.9-0.5,1.6-1.1,2.1c-0.6,0.5-1.5,0.8-2.5,0.7l-1.3-0.1L159.4,95.3z M160.4,98.6c0.6,0,1.1-0.1,1.4-0.3
			c0.3-0.3,0.5-0.6,0.6-1.1c0-0.5-0.1-0.8-0.3-1.2c-0.3-0.3-0.7-0.5-1.3-0.6L160.4,98.6z"/>
		<path class="st1" d="M163.2,103l-0.4,1.5l-0.8-0.2l0,0c0.5,0.7,0.6,1.4,0.4,2.2c-0.1,0.5-0.3,0.9-0.6,1.2
			c-0.3,0.3-0.6,0.5-0.9,0.7c0.5,0.8,0.6,1.6,0.4,2.6c-0.2,0.6-0.5,1.1-1.1,1.6c-0.6,0.4-1.3,0.5-2.2,0.3l-5-1.3l0.4-1.5l4.5,1.2
			c0.5,0.1,1,0.1,1.3-0.1c0.4-0.2,0.6-0.5,0.7-1c0.1-0.4,0.1-0.8-0.1-1.2c-0.2-0.4-0.6-0.6-1.1-0.7l-4.5-1.2l0.4-1.5l4.5,1.2
			c0.5,0.1,1,0.1,1.3-0.1c0.4-0.2,0.6-0.5,0.7-1c0.1-0.4,0.1-0.8-0.1-1.2c-0.2-0.4-0.6-0.6-1.1-0.8l-4.5-1.2l0.4-1.5L163.2,103z"/>
	</g>
	<g>
		<path class="st1" d="M52.7,149.5c1.5-2.9,4.8-3.9,7.8-2.4c2.6,1.4,3.6,3.9,2.9,6.1l-2.2-1.1c0.3-1-0.3-2.3-1.7-3
			c-1.7-0.9-3.7-0.3-4.7,1.5c-0.9,1.8-0.3,3.8,1.4,4.7c1.4,0.7,3,0.4,3.6-0.4L62,156c-1.3,1.8-4.2,2.6-6.9,1.2
			C52.2,155.7,51.2,152.4,52.7,149.5z"/>
		<path class="st1" d="M66.1,150.1l7.7,2.5l-0.7,2l-5.4-1.8L67,155l4.9,1.6l-0.7,2l-4.9-1.6l-0.7,2.2l5.5,1.8l-0.7,2l-7.8-2.6
			L66.1,150.1z"/>
		<path class="st1" d="M79.5,164.8L78,161l-1.9-0.3l-0.6,3.4l-2.4-0.4L75,153l4.3,0.7c2.7,0.5,4.1,2.2,3.7,4.4
			c-0.2,1.5-1.1,2.5-2.5,2.9l1.8,4.3L79.5,164.8z M76.5,158.6l1.8,0.3c1.3,0.2,2.1-0.2,2.3-1.2c0.2-1-0.5-1.7-1.8-1.9l-1.8-0.3
			L76.5,158.6z"/>
		<path class="st1" d="M93.4,156.9l-3.5-0.1l-0.2,8.7l-2.4-0.1l0.2-8.7l-3.5-0.1l0-2.1l9.5,0.2L93.4,156.9z"/>
		<path class="st1" d="M96.8,154.3l0.9,10.8l-2.4,0.2l-0.9-10.8L96.8,154.3z"/>
		<path class="st1" d="M98.5,154.2l7.8-1.5l0.4,2.1l-5.4,1l0.5,2.4l4.8-0.9l0.4,2.1l-4.8,0.9l0.8,4.1l-2.4,0.4L98.5,154.2z"/>
		<path class="st1" d="M109.6,151.6l3.1,10.4l-2.3,0.7l-3.1-10.4L109.6,151.6z"/>
		<path class="st1" d="M111.2,151.2l7.4-3.1l0.8,1.9l-5.2,2.2l0.9,2l4.8-2l0.8,1.9l-4.8,2l0.9,2.2l5.3-2.2l0.8,1.9l-7.6,3.1
			L111.2,151.2z"/>
		<path class="st1" d="M119.8,147.6l3.6-2.2c3.1-1.9,6.1-1.2,7.8,1.6c1.7,2.7,0.9,5.8-2.1,7.7l-3.6,2.2L119.8,147.6z M128,152.8
			c1.8-1.1,2.2-2.8,1.1-4.5c-1.1-1.8-2.8-2.1-4.6-1l-1.6,1l3.4,5.6L128,152.8z"/>
	</g>
	<circle class="st2" cx="90" cy="90" r="57.5"/>
	<g>
		<path class="st2" d="M149.6,133.7c-0.6,0.3-1.1,0.6-1.1,0.6l-0.5,2.5l-1.6-1.9c0,0-0.6,0.1-1.2,0.2c-0.6,0.1-1.2,0.1-1.2,0.1
			s0.3-0.5,0.6-1c0.3-0.5,0.6-1.1,0.6-1.1l-1.1-2.2c0,0,0.6,0.1,1.2,0.2c0.6,0.1,1.2,0.2,1.2,0.2l1.7-1.8l0.4,2.4l2.2,1.1
			C150.7,133.1,150.2,133.4,149.6,133.7z M155.5,124.4c-0.5,0.4-1,0.7-1,0.7l-0.1,2.5l-1.9-1.6c0,0-0.6,0.2-1.2,0.3
			c-0.6,0.2-1.2,0.3-1.2,0.3s0.2-0.6,0.5-1.1c0.2-0.6,0.4-1.1,0.4-1.1l-1.4-2c0,0,0.6,0,1.2,0.1c0.6,0,1.2,0,1.2,0l1.4-2l0.7,2.3
			l2.4,0.7C156.5,123.6,156,124,155.5,124.4z M141.6,140.3l2,1.4c0,0-0.6,0.2-1.2,0.4c-0.6,0.2-1.2,0.4-1.2,0.4l-0.9,2.4l-1.3-2.1
			c0,0-0.6,0-1.2,0c-0.6,0-1.2-0.1-1.2-0.1s0.4-0.5,0.8-0.9c0.4-0.5,0.8-1,0.8-1l-0.8-2.3c0,0,0.6,0.2,1.2,0.4
			c0.6,0.2,1.2,0.4,1.2,0.4l1.9-1.5L141.6,140.3z M45.2,140.8l-0.6,2.4c0,0,0.4,0.5,0.8,0.9c0.4,0.4,0.8,0.9,0.8,0.9
			s-0.6,0.1-1.2,0.1c-0.6,0.1-1.2,0.1-1.2,0.1l-1.2,2.1l-1-2.4c0,0-0.6-0.2-1.2-0.3c-0.6-0.2-1.2-0.4-1.2-0.4l2-1.5l-0.1-2.5l2,1.4
			c0,0,0.6-0.2,1.1-0.5C44.6,141.1,45.2,140.8,45.2,140.8z M29.5,129.1l-1.8,1.7l-0.3-2.5c0,0-0.5-0.3-1.1-0.7
			c-0.5-0.4-1.1-0.7-1.1-0.7l2.3-0.8l0.6-2.4l1.5,1.9c0,0,0.6-0.1,1.2-0.1c0.6-0.1,1.2-0.1,1.2-0.1l-1.3,2.1c0,0,0.3,0.6,0.5,1.1
			c0.1,0.3,0.3,0.6,0.3,0.8c0.1,0.2,0.2,0.3,0.2,0.3s-0.6-0.1-1.2-0.3C30.1,129.2,29.5,129.1,29.5,129.1z M31.5,136.1l2.2-1.2
			l0.3-2.5l1.8,1.7c0,0,0.6-0.1,1.2-0.3c0.6-0.2,1.2-0.3,1.2-0.3l-1,2.2c0,0,0.3,0.5,0.7,1c0.3,0.5,0.7,1,0.7,1s-0.6,0-1.2-0.1
			c-0.6-0.1-1.2-0.1-1.2-0.1l-1.5,1.9l-0.6-2.5c0,0-0.6-0.2-1.2-0.5C32.1,136.4,31.5,136.1,31.5,136.1z"/>
	</g>
	<g>
		<path d="M67.7,112.3c0,2-1,3.8-4.4,7.3l-2.8,2.9h7.6v3.7h-14v-2.5l6.4-6.6c2.4-2.4,2.9-3.7,2.9-4.8c0-1.4-0.8-2.4-2.7-2.4
			c-1.8,0-2.7,1.4-2.7,2.9h-4.3c0-3.8,2.9-6.7,7-6.7C65.1,106.2,67.7,108.7,67.7,112.3z"/>
		<path d="M83.3,109.3l-7.3,17h-4.6l6.7-15.8h-8.4v-3.8h13.4V109.3z"/>
		<path d="M98.3,109.3l-7.3,17h-4.6l6.7-15.8h-8.4v-3.8h13.4V109.3z"/>
		<path d="M114.7,116.4c0,6.8-3.2,10.3-7.5,10.3c-4.3,0-7.5-3.4-7.5-10.3c0-6.9,3.2-10.3,7.5-10.3
			C111.5,106.2,114.7,109.6,114.7,116.4z M103.8,116.4c0,4.4,1.4,6.5,3.4,6.5c1.9,0,3.4-2,3.4-6.5c0-4.5-1.4-6.5-3.4-6.5
			C105.3,110,103.8,112,103.8,116.4z"/>
		<path d="M124.2,126.2h-4.3v-15.8h-3.5v-3.8h7.8V126.2z"/>
	</g>
	<g>
		<path d="M61.7,88.6h6.2V97H44.7v-8.4h6.2V67.5h-6.2v-8.4h23.2v8.4h-6.2V88.6z"/>
		<path d="M69.6,83.2h8.1c1.6,3.7,5.2,5.6,9.2,5.6c1.5,0,4.5-0.1,4.5-2.1c0-3-7.7-3-12.9-4.6c-5.4-1.7-9-5.2-9-10.5
			c0-8,5.5-12.4,13.7-12.4c3.5,0,4.9,0.4,7.8,1.7v-1.6h8.6v13.3h-8c-0.2-3.3-5.3-5.1-8-5.1c-2.6,0-4.2,0.8-4.2,2.1
			c0,2.5,7.2,2.5,12.2,4.1c5.2,1.6,9.9,5,9.9,11.4c0,8.7-6.9,12-15,12c-3,0-5.9-0.7-8.2-2.4c0,0.3,0,2.3,0,2.3h-8.7V83.2z"/>
		<path d="M139.9,78.1c0,9.9-6.8,19.1-18.8,19.1c-12.1,0-18.8-9.2-18.8-19.1c0-9.9,6.8-19.1,18.8-19.1
			C133.2,59,139.9,68.2,139.9,78.1z M114.6,78.1c0,5.8,0.9,10.8,6.5,10.8c5.6,0,6.5-5.6,6.5-10.8c0-5.2-0.9-10.8-6.5-10.8
			C115.5,67.3,114.6,72.2,114.6,78.1z"/>
	</g>
</g>
</svg>
