<svg xmlns="http://www.w3.org/2000/svg" viewBox="0 0 1001 115" width="1001" height="115" fill="none" aria-hidden="true">
<title>PENTACORE logotype mask</title>
  <path d="M660.459 92.5199C655.041 99.5006 648.16 104.92 639.824 108.775C631.594 112.525 622.111 114.4 611.381 114.4C602.63 114.4 594.504 113.047 587.004 110.339C579.607 107.526 573.148 103.563 567.626 98.4577C562.208 93.3525 557.984 87.3119 554.963 80.3314C554.126 78.3983 553.418 76.4059 552.818 74.36H592.433C593.113 75.3714 593.855 76.3195 594.662 77.2032C596.954 79.5996 599.664 81.4216 602.79 82.6719C605.915 83.9218 609.404 84.5486 613.258 84.5487C618.154 84.5487 622.53 83.4568 626.385 81.2698C629.445 79.498 632.283 77.1906 634.909 74.36H640.115L660.459 92.5199Z" fill="white"/>
  <path d="M783.003 74.36C782.398 76.2894 781.688 78.1767 780.864 80.0186C777.842 86.9985 773.571 93.0923 768.05 98.3013C762.528 103.407 756.017 107.369 748.516 110.183C741.014 112.996 732.78 114.4 723.82 114.4C714.966 114.4 706.735 112.995 699.13 110.183C691.629 107.37 685.118 103.406 679.596 98.3013C674.074 93.0919 669.746 86.9992 666.62 80.0186C665.823 78.1766 665.137 76.2898 664.553 74.36H703.99C704.697 75.4298 705.471 76.4309 706.319 77.3596C708.612 79.6518 711.217 81.4216 714.134 82.6719C717.155 83.9218 720.383 84.5485 723.82 84.5487C727.258 84.5487 730.438 83.9221 733.355 82.6719C736.377 81.4216 738.982 79.6516 741.17 77.3596C742.058 76.4314 742.863 75.4293 743.594 74.36H783.003Z" fill="white"/>
  <path d="M88.3751 74.36C85.6416 76.5321 82.5509 78.4278 79.0801 80.0186C71.6832 83.3524 62.8795 85.0177 52.6698 85.018H36.8839V111.897H0V74.36H88.3751Z" fill="white"/>
  <path d="M148.53 84.0795H203.228V111.897H112.272V74.36H148.53V84.0795Z" fill="white"/>
  <path d="M251.021 111.897H215.075V74.36H251.021V111.897Z" fill="white"/>
  <path d="M322.912 111.897H292.591L261.221 74.36H322.912V111.897Z" fill="white"/>
  <path d="M398.981 111.897H362.103V74.36H398.981V111.897Z" fill="white"/>
  <path d="M458.393 111.897H420.884L437.29 74.36H472.816L458.393 111.897Z" fill="white"/>
  <path d="M552.79 111.897H514.655L500.232 74.36H536.378L552.79 111.897Z" fill="white"/>
  <path d="M884.69 74.36C882.794 75.7891 880.729 77.0826 878.484 78.2255L901.459 111.897H862.078L843.527 84.3923H833.478V111.897H796.594V74.36H884.69Z" fill="white"/>
  <path d="M946.967 84.0795H1001V111.897H910.709V74.36H946.967V84.0795Z" fill="white"/>
  <path d="M52.6698 2.5025C62.8795 2.50272 71.6832 4.16807 79.0801 7.50191C86.5817 10.836 92.3667 15.6288 96.43 21.8801C99.8835 27.105 101.867 33.159 102.385 40.04H64.8862C64.3263 37.7889 63.2306 35.9002 61.5738 34.3814C59.1774 32.0906 55.4275 30.9461 50.3237 30.9461H36.8839V40.04H0V2.5025H52.6698Z" fill="white"/>
  <path d="M201.2 30.3205H148.53V40.04H112.272V2.5025H201.2V30.3205Z" fill="white"/>
  <path d="M276.766 40.04H215.075V2.5025H245.396L276.766 40.04Z" fill="white"/>
  <path d="M322.912 40.04H286.966V2.5025H322.912V40.04Z" fill="white"/>
  <path d="M431.022 31.1025H398.981V40.04H362.103V31.1025H330.062V2.5025H431.022V31.1025Z" fill="white"/>
  <path d="M521.375 40.04H487.038L486.524 38.705L486.01 40.04H452.299L468.705 2.5025H504.963L521.375 40.04Z" fill="white"/>
  <path d="M611.381 0C622.111 0 631.594 1.87504 639.824 5.62504C648.16 9.37585 655.041 14.7952 660.459 21.8801L640.115 40.04H634.903C632.28 37.231 629.442 34.9764 626.385 33.2866C622.53 30.9954 618.154 29.8512 613.258 29.8512C609.404 29.8514 605.915 30.4782 602.79 31.7281C599.664 32.9784 596.954 34.8004 594.662 37.1968C593.861 38.0741 593.125 39.0226 592.45 40.04H552.818C553.418 37.9941 554.126 36.0017 554.963 34.0686C557.984 27.0881 562.208 21.0475 567.626 15.9423C573.148 10.8372 579.607 6.92621 587.004 4.21738C594.504 1.40488 602.63 0.000280088 611.381 0Z" fill="white"/>
  <path d="M723.82 0C732.78 0 741.014 1.40434 748.516 4.21738C756.017 7.03049 762.528 11.0456 768.05 16.2551C773.571 21.3599 777.842 27.4016 780.864 34.3814C781.697 36.2148 782.412 38.1022 783.02 40.04H743.544C742.827 39.0104 742.036 38.0625 741.17 37.1968C738.982 34.8006 736.377 32.9784 733.355 31.7281C730.438 30.4778 727.258 29.8512 723.82 29.8512C720.383 29.8515 717.155 30.4782 714.134 31.7281C711.217 32.9784 708.612 34.8004 706.319 37.1968C705.493 38.0627 704.733 39.0103 704.04 40.04H664.537C665.124 38.1022 665.815 36.2149 666.62 34.3814C669.746 27.4008 674.074 21.3603 679.596 16.2551C685.118 11.0459 691.629 7.0304 699.13 4.21738C706.735 1.40489 714.966 0.000217777 723.82 0Z" fill="white"/>
  <path d="M849.264 2.5025C859.473 2.50272 868.277 4.16808 875.674 7.50191C883.175 10.836 888.96 15.6288 893.024 21.8801C896.477 27.105 898.46 33.159 898.978 40.04H861.48C860.92 37.7889 859.824 35.9002 858.168 34.3814C855.771 32.0906 852.021 30.9461 846.917 30.9461H833.478V40.04H796.594V2.5025H849.264Z" fill="white"/>
  <path d="M1001 30.3205H946.967V40.04H910.709V2.5025H1001V30.3205Z" fill="white"/>
  <path d="M1001 51.48V62.92H0V51.48H1001Z" fill="white"/>
</svg>
